<?xml version="1.0" encoding="UTF-8"?>
<svg id="Camada_2" data-name="Camada 2" xmlns="http://www.w3.org/2000/svg" viewBox="0 0 474.82 101.39">
  <defs>
    <style>
      .cls-1, .cls-2 {
        fill: #fff;
      }

      .cls-2 {
        fill-rule: evenodd;
      }
    </style>
  </defs>
  <g id="Camada_2-2" data-name="Camada 2">
    <g id="LOGOS_HORIZONTAL" data-name="LOGOS HORIZONTAL">
      <g>
        <rect class="cls-1" x="177.85" y="31.95" width=".87" height="37.5"/>
        <path class="cls-2" d="m203.1,55.1c-2.94,1.1-5.67-.29-7.46-2.92,2.99-1.1,5.24-.48,7.26,1.66.06.42.13.84.2,1.26m.64-.28c-.06.03-.12.05-.17.08-.02-.12-.04-.25-.06-.38.08.1.15.2.23.3Z"/>
        <path class="cls-2" d="m209.07,41.02c.85.08,1.48.83,1.41,1.69-.12,1.37-1.85,1.92-2.74.85-.89-1.06-.05-2.66,1.33-2.54"/>
        <path class="cls-2" d="m205.87,42.94c.85.07,1.48.83,1.41,1.68-.12,1.38-1.85,1.92-2.74.86-.89-1.06-.05-2.66,1.33-2.54"/>
        <path class="cls-2" d="m211.24,58.12c.84.14,1.42.93,1.28,1.78-.22,1.36-1.98,1.78-2.78.66-.81-1.12.14-2.66,1.5-2.44"/>
        <path class="cls-2" d="m208.18,59.96c.85.13,1.42.93,1.29,1.78-.14.84-.93,1.42-1.78,1.28-.14-.02-.28-.06-.4-.12-.09-.23-.17-.47-.26-.7-.17-.47-.33-.95-.48-1.42.3-.58.94-.94,1.62-.83"/>
        <path class="cls-2" d="m207.9,56.35c.84.14,1.42.93,1.28,1.78-.22,1.37-1.98,1.78-2.79.66-.81-1.12.14-2.66,1.51-2.44"/>
        <path class="cls-2" d="m213.06,70.42c.85-.03,1.57.65,1.6,1.51.03.85-.65,1.57-1.51,1.6-.15,0-.3-.02-.44-.05-.39-.57-.77-1.16-1.14-1.76.12-.71.73-1.27,1.48-1.3"/>
        <path class="cls-2" d="m206.96,69.03c.22.03.42.1.6.21.24.49.48.99.74,1.47,0,.02,0,.04-.01.06-.12.85-.9,1.44-1.75,1.33-.85-.11-1.44-.89-1.33-1.75.12-.85.9-1.44,1.75-1.33h0Z"/>
        <path class="cls-2" d="m248.34,97.44c6.53,2.53,10.45,3.14,10.74,2.69-.92,2.3-6.31,1.24-13.25-1.6l2.51-1.09Zm-3.5-1.3c.12.11.21.11.33,0,.8.35,1.58.66,2.31.96l-2.48,1.09c-.81-.35-1.64-.71-2.48-1.09l2.31-.96Zm-10.31-5.23c3.53,1.94,6.77,3.52,9.66,4.8l-2.4,1.04c-3.68-1.71-7.6-3.79-11.41-6.05h.24c1.35.07,2.73.13,3.91.2Zm-29.85-54.94c-.31,1.23-.55,2.48-.72,3.75-.16.26-.26.56-.29.89-.03.28.01.56.09.81-1.27,13.08,3.72,27.7,12.4,37.24v2.19c-10.98-11.17-15.78-29.95-12.07-45.11.15-.46.73-.26.59.24Z"/>
        <path class="cls-2" d="m281.5,42.81s-.09-.02-.13-.03c-.19-.04-.37.03-.49.19-.12.15-.15.34-.07.52.2.47.43.89.7,1.26.02-.63.01-1.24,0-1.84v-.1m.9.25c-.08-.03-.16-.05-.24-.08.03.82.02,1.66-.02,2.52.14.14.29.27.44.39-.02-.97-.08-1.92-.18-2.82Zm3.27,3.18c-.46-1.31-1.41-2.28-2.58-2.88.09.94.15,1.93.15,2.94.55.3,1.17.49,1.86.6.19.03.36-.04.47-.18.12-.14.15-.32.09-.49Zm-5.7,7.09c-.13-.22-.25-.46-.36-.7-.07-.16-.06-.34.04-.49.1-.15.26-.23.44-.23.11,0,.22,0,.33.02-.14.47-.29.93-.46,1.4Zm1.3,1.51c-.31-.24-.59-.52-.84-.84.24-.66.46-1.33.65-1.98.32.06.62.15.9.27-.19.85-.42,1.7-.71,2.55Zm2.83.89c-.85.04-1.61-.15-2.27-.51.3-.86.55-1.73.74-2.61.81.51,1.45,1.32,1.96,2.39.07.16.07.33-.03.48-.09.15-.24.24-.41.24Zm2.43,5.46c2,.57,3.82-.3,5.09-1.96.11-.14.14-.32.07-.49-.06-.17-.2-.29-.37-.32-2.09-.45-3.65.24-5.05,1.95-.11.14-.15.31-.09.48.05.17.18.29.34.34Zm-6.76-2.47c-.33-.44-.59-.94-.79-1.5.2-.37.38-.74.56-1.11.4.08.78.19,1.11.34-.3.77-.6,1.53-.88,2.27Zm3.04,1.74c-1.03-.11-1.88-.54-2.55-1.18.31-.83.64-1.67.97-2.53,1.02.63,1.69,1.64,2.12,3.05.05.17.02.34-.09.47-.12.14-.28.2-.45.19Zm2,5.7c1.91.85,3.83.24,5.32-1.22.13-.13.18-.3.14-.47-.04-.18-.15-.31-.32-.38-2-.74-3.65-.27-5.27,1.23-.13.12-.19.28-.15.46.03.18.13.31.29.39Zm-1.87,4.09c1.54.73,3.12.49,4.47-.41.33-.4.67-.82,1-1.24-.05-.14-.15-.25-.3-.3-1.98-.78-3.65-.36-5.3,1.1-.13.12-.19.28-.16.46.03.18.13.31.29.39Zm-6.04-3.2c-.42-.69-.68-1.52-.77-2.41-.02-.18.05-.34.19-.45.14-.11.31-.14.48-.08.33.12.64.25.92.41-.29.85-.56,1.7-.82,2.54Zm2.54,1.92c-.85-.23-1.53-.67-2.06-1.26.29-.93.59-1.87.91-2.82,1.03.8,1.59,1.96,1.8,3.52.02.18-.04.33-.17.45-.14.12-.3.15-.48.11Zm3.92,6.32c.24-.04.48-.1.72-.17.61-.66,1.2-1.34,1.79-2.04-.07-.04-.15-.06-.23-.1-.76.83-1.52,1.59-2.28,2.31Zm-2.67-.46c.53.28,1.07.43,1.6.49.89-.83,1.75-1.69,2.58-2.58-1.51-.34-2.87.11-4.26,1.24-.13.11-.2.27-.19.45.02.18.12.32.27.4Zm-.33,5.1c.94-.02,1.89-.33,2.78-.88.15-.09.24-.24.24-.42s-.08-.34-.23-.44c-.17-.11-.32-.21-.49-.29-.73.68-1.5,1.35-2.31,2.03Zm-1.93-.42c.26.13.54.23.81.3.84-.73,1.68-1.49,2.5-2.29-.23-.07-.46-.12-.7-.14l-.16.14c-.81.7-1.63,1.35-2.45,2Zm-.75-.46s.09.06.12.09c.75-.58,1.47-1.16,2.18-1.76-.73.1-1.47.37-2.24.81-.15.09-.24.23-.26.41-.01.18.06.33.2.44Zm10.1-40.96c1.85-.39,3.18-2.77,3.25-4.75.01-.2-.09-.37-.25-.46-.17-.1-.37-.1-.53.01-1.72,1.07-2.85,2.53-3.08,4.65-.02.17.04.32.16.43.13.11.29.15.45.12h0Zm-.09,4.09c.48-1.99,1.91-3.48,3.86-4.17.19-.07.39-.03.53.12.14.14.19.33.13.53-.66,1.97-2.14,4.01-3.98,4.16-.17,0-.32-.05-.43-.18-.11-.13-.15-.29-.11-.45Zm.31,4.06c.67-1.91,2.37-3.09,4.3-3.45.19-.04.37.03.49.19.12.15.14.34.07.52-.87,2.01-2.26,3.1-4.3,3.42-.18.03-.35-.04-.47-.18-.12-.14-.15-.32-.09-.49Zm.41,5.02c2.08.18,3.69-1.03,4.62-2.9.08-.16.07-.34-.02-.49-.09-.15-.24-.24-.42-.24-2.14-.04-3.54.94-4.58,2.89-.09.15-.09.33,0,.48.08.15.23.25.4.27h0Zm-1.69-17.36c1.81-.56,2.91-3.06,2.79-5.04-.01-.19-.12-.35-.3-.43-.18-.08-.37-.06-.52.05-1.62,1.23-2.61,2.79-2.64,4.92,0,.17.07.31.21.41.13.1.3.13.46.08Zm-1.09,8.3c-.48-1.99-1.91-3.47-3.86-4.18-.19-.06-.39-.02-.53.12-.14.14-.19.34-.13.53.66,1.97,2.14,4.01,3.98,4.15.17.02.32-.05.43-.18.11-.13.15-.29.11-.45Zm-1.26-4.08c-1.86-.39-3.18-2.78-3.25-4.76-.01-.19.09-.36.26-.46.17-.1.36-.1.52,0,1.73,1.08,2.85,2.54,3.08,4.66.02.17-.04.32-.17.43-.12.11-.28.15-.45.12Zm-.05-4.72c-1.71-.82-2.43-3.45-2.02-5.4.04-.19.17-.33.36-.38.19-.06.38,0,.51.13,1.42,1.45,2.17,3.14,1.88,5.25-.02.17-.11.3-.26.38-.15.08-.31.08-.46.01Zm3.37,22.62c2.08.26,3.74-.87,4.74-2.7.09-.16.09-.33,0-.49-.09-.16-.24-.25-.42-.27-2.13-.13-3.58.79-4.7,2.68-.09.15-.1.32-.02.48.08.16.22.26.4.29h0Zm-9.38,6.7c-.31-.6-.51-1.29-.61-2.03-.02-.18.04-.34.18-.46.14-.11.31-.14.49-.09.27.09.52.19.75.3-.28.77-.55,1.53-.81,2.28Zm2.8,2.22c-1-.25-1.78-.79-2.35-1.52.3-.88.61-1.76.94-2.65,1.16.77,1.79,1.96,2.04,3.6.03.18-.03.34-.16.46-.13.12-.3.16-.47.12Zm-5.65,6.83c-.91-.86-1.39-2.11-1.47-3.51,0-.18.06-.34.21-.44.14-.11.32-.13.49-.06.67.27,1.22.62,1.66,1.04-.3.99-.6,1.98-.88,2.97Zm1.64.97c-.4-.13-.76-.31-1.09-.52.27-.94.55-1.89.83-2.83.53.75.82,1.69.92,2.82.02.18-.05.33-.19.45-.14.11-.31.14-.48.08Zm3.92-23.33c-.33-.39-.63-.83-.87-1.33-.08-.16-.07-.33.02-.49.1-.15.25-.24.43-.25.25,0,.49,0,.73.03-.08.67-.18,1.34-.31,2.03Zm1.28,1.06c-.25-.14-.49-.31-.72-.5l.04-.19c.15-.77.27-1.54.36-2.29.2.05.4.11.58.18-.03.8-.1,1.61-.21,2.42-.02.13-.03.25-.05.38Zm2.47.51c-.67.06-1.29-.03-1.85-.23.03-.2.06-.39.09-.58.1-.74.16-1.46.2-2.19.79.48,1.44,1.24,1.98,2.25.08.16.08.33,0,.49-.09.15-.23.25-.41.26Z"/>
        <path class="cls-2" d="m255.54,90.88c-3.67,2.02-7.43,3.88-11.28,5.51-8.07,3.4-13,4.25-13.33,3.74,1.56,3.87,15.78-1.78,28.74-9.44-1.3.05-2.64.11-3.79.16-.1,0-.2.01-.29.02h-.04Zm29.58-56.62c3.75,15.13-.44,32.19-10.73,43.8l-.45.53v2.18c11.75-12.01,15.71-30.62,11.77-46.74-.15-.46-.73-.26-.59.24Z"/>
        <path class="cls-2" d="m204.86,54.08c2.96,1.96,6.11.95,8.37-1.61-3.22-1.68-5.76-1-8.37,1.61"/>
        <path class="cls-2" d="m204.83,37.8c2.77.56,4.39-1.53,5.07-4.15-2.61.04-4.11,1.54-5.07,4.15"/>
        <path class="cls-2" d="m213.59,77.97c.1-.07.19-.14.29-.21-.33-.25-.65-.47-.98-.66.23.3.46.59.68.87m-8.13-.07c3.25,1.76,4.53,2.53,7.73.35-.44-.54-.86-1.1-1.27-1.66-2.13-.9-4.16-.48-6.46,1.31Zm9.97,2.2c.1-.2.2-.41.3-.63-.37-.13-.74-.21-1.09-.24.26.3.52.59.79.87Zm-6.77,3.92s2.68.16,4.31-.92c1.11-.74,1.7-1.54,2.22-2.53-.41-.45-.82-.9-1.22-1.36-2.43.11-4.24,2.27-5.31,4.81Zm8.81-7.08c.9-2.02.82-4.04.01-6.07,0,1.95-.01,3.97-.01,6.07Zm-1.31-6.41c-1.05,1.9-1.61,4.81-.63,6.68.21.24.41.48.62.72,0-2.33.01-4.82.01-7.4Z"/>
        <path class="cls-2" d="m202.31,51.91c.62-3.43-1.5-6.33-4.47-7.67-.18,3.8,1.26,6.19,4.47,7.67"/>
        <path class="cls-2" d="m218.01,76.35c-.62,1.27-.79,2.63-.12,3.77l.12-.07v-3.7Z"/>
        <path class="cls-2" d="m215.65,61.27c-2.73.12-7.24,2.76-6.65,5.91,3.55-.54,5.58-2.68,6.65-5.91"/>
        <path class="cls-2" d="m204.56,52.35c1.39-.53,2.44-1.48,3.09-2.67.66-1.21.9-2.67.66-4.22-1.44.89-2.45,1.68-3.05,2.69-.61,1.02-.82,2.3-.7,4.2"/>
        <path class="cls-2" d="m202.94,67.47c1.33-.34,2.66-.28,3.64.45l.02.12c-.73.06-1.34.07-1.93-.01-.57-.07-1.12-.24-1.73-.56m-4.65,2.96c.8-1.09,2.36-2.2,4-2.76l.13.07c.79.44,1.48.66,2.19.76.62.09,1.25.07,1.98.02-.05.05-.1.1-.15.15-.75.03-1.42.53-1.67,1.25-1.94,1.09-4.12,1.16-6.48.51Z"/>
        <path class="cls-2" d="m200.27,64.17c.05.13.09.28.14.44.22.74.52,1.75,2.24,2.71.74.41,1.37.62,2.02.71.59.08,1.2.07,1.94.01-.24-1.31-.97-2.22-1.95-2.83-1.21-.75-2.82-1.04-4.39-1.04"/>
        <polygon class="cls-2" points="243.73 37.37 245.03 33.81 246.35 37.36 250.13 37.5 247.17 39.86 248.21 43.5 245.05 41.41 241.9 43.52 242.92 39.87 239.94 37.53 243.73 37.37"/>
        <path class="cls-2" d="m233.97,15.68c-.92.25-1.83.54-2.73.85-.4-3.25.06-5.73,1.31-6.06,1.24-.33,2.91,1.58,4.22,4.58-.94.18-1.88.39-2.8.64m11.06-1.46c-.96,0-1.91.04-2.86.11.58-3.8,1.69-5.48,2.89-5.47,1.12,0,2.28,1.66,2.84,5.47-.95-.07-1.92-.11-2.88-.11Zm-21.88,1.12c.98.55,2.13,1.62,3.24,3.06-1.28.6-2.24,1.15-3.44,1.89l.65,1.33c.08.18.23.3.41.35.19.05.37.02.54-.09,10.07-6.58,31.03-6.69,40.91.02.16.11.33.14.51.1.19-.04.33-.15.42-.31l.81-1.39c-.42-.26-.52-.32-.96-.57-.84-.47-1.69-.91-2.56-1.32,1.24-1.59,2.62-2.96,3.71-3.37.94-.42,1.7.28,1.88,1.17.06.04.12.07.18.11l2.17-3.67c.1-.15.26-.23.43-.22l1.4.12c.18.02.33-.06.43-.21l1.32-2.05.07-.12.38-.59c.14-.22.07-.51-.14-.64l-1.04-.66c-.21-.14-.5-.08-.64.14l-.75,1.16c-.13.21-.42.28-.64.14l-1.8-1.16c-.21-.14-.28-.42-.14-.64l.75-1.16c.14-.21.07-.5-.14-.64l-1.04-.67c-.21-.13-.5-.07-.64.14l-.38.59-.07.11-1.31,2.05c-.1.15-.1.32-.02.48l.67,1.18c.1.18.08.38-.05.53-1.11,1.29-2.17,2.57-3.24,3.89l-3.45-1.71-.22-4.56c-.02-.24.16-.45.4-.48l1.64-.19c.19-.02.33-.15.39-.34.3-1.04.59-2.08.88-3.12.07-.25-.07-.51-.32-.57l-1.23-.35c-.24-.07-.5.07-.57.32l-.38,1.33c-.07.24-.33.39-.57.32l-.9-.25c-.24-.07-.39-.33-.32-.57l.37-1.33c.07-.24-.07-.5-.32-.57l-1.23-.35c-.25-.07-.5.07-.57.32l-.38,1.33c-.07.24-.32.39-.57.32l-.9-.26c-.25-.07-.39-.32-.32-.57l.38-1.33c.07-.24-.07-.5-.32-.57l-1.23-.35c-.25-.07-.5.07-.57.32-.29,1.05-.59,2.08-.88,3.13-.05.19.01.37.16.49l1.34,1.06c.17.13.22.36.13.56l-1.84,3.96-4.43-.63-1.12-4.46c-.06-.23.06-.45.27-.54l1.56-.64c.17-.07.29-.24.29-.43V.46c0-.26-.21-.46-.47-.46h-1.28c-.25,0-.46.21-.46.46v1.38c0,.26-.21.46-.46.46h-.95c-.25,0-.46-.21-.46-.46V.46c0-.26-.21-.46-.46-.46h-1.28c-.25,0-.46.21-.46.46v1.38c0,.26-.21.46-.46.46h-.95c-.25,0-.46-.21-.46-.46V.46c0-.26-.21-.46-.46-.46h-1.28c-.25,0-.46.21-.46.46v3.24c0,.19.11.36.28.43l1.56.64c.21.09.33.31.28.54l-1.08,4.46-4.44.62-1.87-3.94c-.1-.2-.04-.43.13-.56l1.34-1.06c.16-.12.21-.3.16-.49-.29-1.04-.58-2.08-.88-3.13-.07-.24-.32-.39-.57-.32l-1.24.35c-.24.07-.39.32-.32.57l.38,1.33c.07.24-.07.5-.32.57l-.91.26c-.24.07-.5-.08-.57-.32l-.38-1.33c-.07-.24-.33-.39-.57-.32l-1.23.35c-.24.07-.39.32-.32.57l.37,1.33c.07.25-.07.5-.32.57l-.9.25c-.24.07-.5-.07-.57-.32l-.37-1.33c-.07-.25-.33-.39-.57-.32l-1.23.35c-.25.07-.39.32-.32.57.29,1.04.58,2.08.88,3.12.05.19.2.31.39.34l1.63.19c.24.03.42.24.4.48l-.22,4.5-3.58,1.82-.57-.68-.35-.44-2.22-2.83c-.12-.15-.13-.35-.04-.51l.68-1.2c.09-.15.08-.33-.01-.48-.6-.92-1.18-1.84-1.77-2.75-.14-.22-.42-.28-.64-.14l-1.04.67c-.21.14-.28.42-.14.64l.75,1.16c.14.22.07.5-.14.64l-1.8,1.16c-.21.14-.5.07-.64-.14l-.75-1.16c-.14-.22-.43-.28-.64-.14l-1.04.66c-.21.14-.28.42-.14.64.59.92,1.18,1.83,1.77,2.75.09.15.25.22.43.21l1.37-.12c.19-.01.36.07.45.24l1.51,2.83.43.81c.06-.04.12-.07.18-.11.11-.53.34-.91.68-1.11.66-.37,1.3-.02,1.91.26Zm35.69,1.2c-.9-.31-1.8-.6-2.73-.85-.93-.26-1.88-.46-2.82-.64.71-1.63,1.52-2.93,2.32-3.73,2.36-2.38,3.26.43,3.34,2.57.04.79.01,1.68-.11,2.65Z"/>
        <path class="cls-2" d="m262.81,22.23c.27.12.4.45.28.72-.13.28-.45.4-.72.28-11.55-5.14-23.1-5.18-34.65,0-.28.12-.59,0-.72-.28-.13-.27,0-.59.27-.72,11.85-5.31,23.7-5.27,35.54,0"/>
        <path class="cls-2" d="m244.98,73.86c1.4,0,2.53,1.14,2.53,2.53s-1.13,2.53-2.53,2.53-2.52-1.14-2.52-2.53,1.13-2.53,2.52-2.53m4.15,1.79l-1.01-.25c-.06-.17-.13-.35-.22-.51l.52-.87c.06-.11.05-.23-.04-.31l-.72-.72c-.08-.08-.21-.09-.31-.04l-.87.52c-.17-.09-.34-.16-.52-.21l-.24-1.02c-.03-.11-.13-.19-.25-.19h-1.02c-.12,0-.22.08-.25.19l-.24,1.02c-.18.05-.35.13-.51.21l-.87-.52c-.11-.06-.23-.04-.31.04l-.72.72c-.08.09-.1.21-.04.31l.52.87c-.08.16-.16.34-.21.51l-.98.25c-.11.03-.2.13-.2.24v1.02c0,.12.08.22.2.24l.98.25c.05.18.13.35.21.52l-.52.87c-.06.1-.04.23.04.31l.72.73c.08.08.21.1.31.03l.87-.52c.16.09.34.16.51.22l.24.98c.03.11.13.19.25.19h1.02c.12,0,.22-.08.25-.19l.24-.98c.18-.06.35-.13.52-.22l.87.52c.1.06.23.05.31-.03l.72-.73c.08-.08.1-.21.04-.31l-.52-.87c.09-.17.16-.34.22-.52l1.01-.25c.11-.03.2-.13.2-.24v-1.02c0-.12-.08-.22-.2-.24Z"/>
        <path class="cls-2" d="m243.5,74.94l.04-.04c.1-.09.25-.09.35,0l.93.94c.1.09.25.09.34,0l.91-.91c.09-.1.25-.1.34,0l.04.04c.1.1.1.25,0,.34l-.91.91c-.1.1-.1.25,0,.34l.93.94c.1.1.1.25,0,.34l-.04.04c-.1.09-.25.09-.35,0l-.93-.94c-.09-.09-.25-.09-.34,0l-.91.92c-.1.09-.25.09-.35,0l-.04-.04c-.1-.1-.1-.25,0-.35l.91-.91c.1-.09.1-.24,0-.34l-.93-.94c-.1-.09-.1-.24,0-.34"/>
        <path class="cls-2" d="m263.32,72.03s.48.66.19,1.37c-.3.51-.83.91-.83.91l-2.13,1.68.1.18,3.51-2.66s.12.25.08.59c.01.14-.08.34-.18.51-.08.13-.31.37-.38.42-.09.06-.21.13-.37.23-.71.41-2.5,1.39-2.46,1.38v.2s3.56-1.77,3.56-1.77c0,0,0,.83-.57,1.23-.2.14-.48.25-.7.33-.14.05-2.27.77-2.27.77v.14s3.18-.89,3.18-.89c0,0-.18.79-.85.98-.57.16-2.42.44-2.42.44l-.06.15,2.5-.22s-.12.34-.68.58c-.56.24-1.29.17-1.29.17l-1.28-.13s-.01-.14.02-.31c.04-.28.03-.68-.27-.88-.49-.32-.49-.12-.76-.5-.16-.3-.09-.51-.09-.51l4.46-4.38Z"/>
        <path class="cls-2" d="m255.07,76.76c.35-1.83,3.4-2.58,4.86-1.85l-1.34,1.21s-.32.25-.06.81c.23.49.46.57.73.65.27.08.32.29.26.86-.01.32-.02.48-.02.48.74.21,1.72.39,2.46.26.35-.06.68-.16.97-.27-.27,1.37-.41,1.9-1.44,1.83-.76-.19-1.76-.49-2.39-.74-.62-.24-.6-.27-.67-.82-.11-.87-.58-2.49-1.78-2.18-1.5.26-1.85.99-1.58-.24"/>
        <path class="cls-2" d="m235,74.99c0,.18.09.28.28.28h-10.37c.18,0,.28-.1.28-.28s-.09-.28-.28-.28h10.37c-.18,0-.28.1-.28.28"/>
        <path class="cls-2" d="m225.46,74.47h9.25c.14,0,.27.06.37.15.09.1.15.22.15.37s-.06.28-.15.37c-.1.1-.22.15-.37.15h-9.25c-.14,0-.27-.06-.37-.15-.1-.09-.15-.22-.15-.37s.06-.27.15-.37c.1-.1.22-.15.37-.15m9.25.48h-9.25s-.02,0-.03.01c-.01,0-.01.02-.01.03s0,.02.01.03c.01.01.02.02.03.02h9.25s.02,0,.03-.02c.01,0,.01-.02.01-.03s0-.02-.01-.03c-.01,0-.02-.01-.03-.01Z"/>
        <path class="cls-2" d="m227.47,76.36s-2.03.41-2.03,1.33,2.29,2.72,2.72,2.83c-.51-1.43-.87-2.34-.68-4.15"/>
        <path class="cls-2" d="m225.2,77.69c0-1.12,2.21-1.56,2.22-1.56.03,0,.05,0,.07,0,.13.02.23.13.21.26-.17,1.67.14,2.56.6,3.85l.07.19s.02.1.01.15c-.04.13-.17.2-.3.17-.28-.07-1.27-.79-2-1.55-.5-.52-.89-1.08-.89-1.51m2-1.01c-.53.14-1.52.48-1.52,1.01,0,.3.33.74.75,1.18.41.43.9.84,1.27,1.11-.37-1.06-.61-1.92-.51-3.31Z"/>
        <path class="cls-2" d="m227.6,76.82c.14.14.29.25.43.34.17.11.33.18.46.22.13.04.2.16.17.29-.11.42-.18.87-.22,1.34-.04.48-.05.98-.03,1.5l-.48.02c-.02-.55-.01-1.07.03-1.56.04-.42.1-.83.19-1.21-.11-.05-.23-.11-.36-.19-.18-.11-.36-.24-.52-.41l.34-.34Z"/>
        <path class="cls-2" d="m227.27,74.8s-.2.9-.04,1.5l-.47.12c-.19-.71.03-1.7.03-1.7l.47.08Z"/>
        <path class="cls-2" d="m227.11,74.64c.84-.85,1.68-1.3,2.57-1.5.88-.2,1.8-.15,2.81-.04l-.05.48c-.97-.11-1.84-.16-2.65.03-.8.18-1.57.58-2.33,1.36l-.34-.33Z"/>
        <path class="cls-2" d="m232.55,74.52v-2.33h3.58c.2,0,.36.16.36.36v.05c0,.2-.16.36-.36.36h-2.74v1.63h-.82v-.05Z"/>
        <path class="cls-2" d="m232.67,72.3v2.15h.6v-1.63h2.86c.06,0,.12-.03.16-.07.04-.04.07-.1.07-.16v-.05c0-.06-.03-.12-.07-.16-.04-.04-.1-.07-.16-.07h-3.46Zm-.24,2.22v-2.46h3.7c.13,0,.25.05.33.14.09.08.14.2.14.33v.05c0,.13-.05.25-.14.33-.08.09-.21.14-.33.14h-2.62v1.62h-1.04s-.04-.13-.04-.17Z"/>
        <path class="cls-2" d="m230.25,76.36s-2.03.41-2.03,1.33,2.29,2.72,2.71,2.83c-.51-1.43-.87-2.34-.68-4.15"/>
        <path class="cls-2" d="m227.98,77.69c0-1.12,2.21-1.56,2.22-1.56.02,0,.05,0,.07,0,.13.02.23.13.22.26-.18,1.67.14,2.56.6,3.85l.07.19s.02.1.01.15c-.04.13-.16.2-.29.17-.28-.07-1.28-.79-2-1.55-.5-.52-.89-1.08-.89-1.51h0Zm2-1.01c-.53.14-1.52.48-1.52,1.01,0,.3.33.74.75,1.18.41.43.9.84,1.27,1.11-.37-1.06-.6-1.92-.51-3.31Z"/>
        <path class="cls-2" d="m230.37,76.82c.14.14.29.25.43.34.17.11.33.18.46.22.13.04.2.16.17.29-.11.42-.18.87-.22,1.34-.04.48-.05.98-.03,1.5l-.48.02c-.02-.55-.02-1.07.03-1.56.04-.43.1-.83.19-1.21-.11-.05-.23-.11-.36-.19-.18-.11-.36-.24-.51-.41l.33-.34Z"/>
        <path class="cls-2" d="m230.05,74.8s-.2.9-.04,1.5l-.47.12c-.19-.71.03-1.7.03-1.7l.47.08Z"/>
        <path class="cls-2" d="m233.02,76.36s-2.03.41-2.03,1.33,2.29,2.72,2.71,2.83c-.51-1.43-.87-2.34-.68-4.15"/>
        <path class="cls-2" d="m230.76,77.69c0-1.12,2.21-1.56,2.22-1.56.02,0,.05,0,.07,0,.13.02.23.13.21.26-.18,1.67.14,2.56.6,3.85l.06.19s.03.1.01.15c-.03.13-.16.2-.29.17-.28-.07-1.28-.79-2-1.55-.5-.52-.89-1.08-.89-1.51m2-1.01c-.53.14-1.52.48-1.52,1.01,0,.3.33.74.75,1.18.41.43.91.84,1.27,1.11-.37-1.06-.6-1.92-.5-3.31Z"/>
        <path class="cls-2" d="m233.15,76.82c.13.14.28.25.43.34.17.11.33.18.46.22.12.04.2.16.16.29-.11.42-.18.87-.22,1.34-.04.48-.05.98-.03,1.5l-.48.02c-.02-.55,0-1.07.03-1.56.04-.43.09-.83.18-1.21-.11-.05-.23-.11-.36-.19-.18-.11-.36-.24-.51-.41l.34-.34Z"/>
        <path class="cls-2" d="m232.82,74.8s-.2.9-.04,1.5l-.46.12c-.19-.71.03-1.7.03-1.7l.47.08Z"/>
        <path class="cls-2" d="m242.15,56.25c-1.78.22-4.04.56-5.84.96-5.12,1.12-11.83,2.08-17.06-.52v-2.44c4.91,2.91,11.55,1.98,16.59.87,2.05-.45,4.56-.85,6.64-1.06.04.28.05.6.01.98h0c-.06.51-.2.87-.35,1.22"/>
        <path class="cls-2" d="m270.87,56.58c-6,3.1-13.21,1.86-18.63.64-1.54-.35-3.08-.7-4.61-.92-.05-.09-.1-.18-.15-.26l-.04-.07c-.12-.2-.24-.4-.33-.61-.11-.28-.16-.55-.15-.82,0-.16.03-.32.07-.49,1.9.23,3.78.65,5.68,1.08,5.33,1.2,12.46,2.42,18.16-1.01v2.46Z"/>
        <path class="cls-2" d="m246.96,59.95c-.13,2.62-1.91,5.45-1.91,5.45,0,0-2.19-3.43-2.2-5.87-.01-2.44.81-2.58,1.02-4.41.21-1.83-.51-2.93-.91-3.25-.39-.32-3.36.4-3.58-1.68-.22-2.08,1.42-2.51,2.2-2.52.41,0,.6.04.76.13.11.06.3.22.27.49-.02.21-.16.34-.37.34-.25,0-.52,0-.79.03-.47.06-.99.28-1.08.91-.18,1.18,1.08,1.25,1.93.89.8-.33,1.02-.95,1.6-1.34.32-.21.7-.34,1.11-.34,1.11,0,2.01.9,2.01,2.01s-.72,1.34-1.09,2.18c-.41.92-.47,1.97-.06,2.95.5,1.22,1.22,1.4,1.09,4.01"/>
        <path class="cls-2" d="m202.84,60.47c.85-.03,1.57.64,1.6,1.5.04,1.38-1.6,2.13-2.61,1.18-1.01-.94-.37-2.64,1.01-2.68"/>
        <path class="cls-2" d="m201.94,56.72c.85-.03,1.57.65,1.6,1.5.05,1.39-1.6,2.13-2.61,1.18-1.01-.95-.37-2.64,1.01-2.68"/>
        <path class="cls-2" d="m199.31,59.42c.85-.03,1.57.65,1.6,1.51.04,1.38-1.6,2.12-2.61,1.18-1.01-.94-.37-2.64,1.01-2.68"/>
        <path class="cls-2" d="m211.79,67.02c.86-.03,1.58.65,1.6,1.5.04,1.39-1.61,2.13-2.62,1.18-1-.95-.37-2.64,1.01-2.68"/>
        <path class="cls-2" d="m207.94,72.46c.86-.03,1.58.65,1.6,1.5.04,1.38-1.61,2.13-2.62,1.18-1.01-.94-.37-2.64,1.01-2.68"/>
        <path class="cls-2" d="m204.17,71.82c.85-.03,1.57.64,1.6,1.5.05,1.38-1.6,2.12-2.61,1.18-1.01-.94-.37-2.64,1.01-2.68"/>
        <path class="cls-2" d="m200.81,41.85c.85-.03,1.57.65,1.6,1.51.04,1.38-1.6,2.12-2.61,1.18-1.01-.94-.37-2.64,1.01-2.69"/>
        <path class="cls-2" d="m202.87,38.89c-2.64-1.01-2.89-3.64-2.06-6.22,2.19,1.44,2.65,3.51,2.06,6.22"/>
        <path class="cls-2" d="m205.83,39.24c.85.07,1.48.83,1.41,1.68-.13,1.38-1.85,1.92-2.74.86-.89-1.06-.05-2.66,1.33-2.54"/>
        <path class="cls-2" d="m200.62,38.52c.83.22,1.32,1.07,1.1,1.89-.35,1.34-2.15,1.58-2.84.39-.7-1.19.4-2.63,1.74-2.28"/>
        <path class="cls-2" d="m204.59,35.04c-1.85-2.13-.83-4.57,1.11-6.46,1.25,2.29.69,4.33-1.11,6.46"/>
        <path class="cls-2" d="m272.62,72.2c-.46,1.58-.83,3.13-1.09,4.62v4.36l1.09-.3v-8.69Zm1.32,5.04c1.89-6.9,3.7-13.23,6.73-20.86h0c.88-2.05,1.41-4.19,1.68-6.29.29-2.25.31-4.95.02-7.2-.13-1.16-.32-1.18-.22,0,.07,2.15-.05,4.47-.54,6.89-.48,2.43-1.32,4.96-2.67,7.5-1.97,3.71-3.69,7.41-5.01,10.97v8.99h0Z"/>
        <path class="cls-2" d="m280.92,77.39c-2.28,1.95-4.58,3.53-6.99,5.05-.03.65-.14,1.29-.32,1.9,5.68-4.21,12.13-9.8,16.27-16.48.03-.04.02-.1-.03-.13-.04-.03-.1-.02-.14.02-2.51,3.26-6.34,7.54-8.79,9.63"/>
        <path class="cls-2" d="m270.58,27.56h3.58c.73,0,1.32.59,1.32,1.32v.09c0,.5-.25.93-.7,1.16-1.33.71-1.51,3.56-1.51,6.4v45.44c0,2.16-.89,4.13-2.31,5.55-1.42,1.43-3.38,2.31-5.54,2.31h0c-.45.01-6.23.2-9.79.38-1.92.09-3.92.39-5.64,1.1-1.63.67-3.03,1.71-3.88,3.32-.45.84-1.67.86-2.12,0-.83-1.58-2.17-2.6-3.72-3.26-1.64-.7-3.53-.99-5.34-1.1-3.47-.2-9.37-.41-10.2-.44h-.06c-2.16,0-4.12-.89-5.54-2.31-1.43-1.43-2.31-3.39-2.31-5.55,0-15.17.07-30.35.07-45.51,0-2.85-.22-5.64-1.57-6.34-.45-.23-.72-.67-.72-1.17v-.08c0-.73.59-1.32,1.32-1.32h54.67Zm1.23,2.4h-53.49c.79,1.69.97,4.08.97,6.51,0,15.16-.07,30.34-.07,45.51,0,1.5.62,2.87,1.6,3.86.99.99,2.34,1.6,3.85,1.6.05,0,.1,0,.14.01.84.03,6.9.24,10.26.43,2.04.12,4.2.47,6.13,1.29,1.47.63,2.8,1.51,3.85,2.77,1.08-1.29,2.48-2.2,4.03-2.84,2.02-.83,4.29-1.18,6.44-1.28,3.64-.19,9.87-.38,9.88-.38h.03c1.5,0,2.86-.62,3.85-1.6.99-.99,1.6-2.36,1.6-3.86v-45.44c0-2.42.15-4.85.93-6.57Z"/>
        <path class="cls-2" d="m275.35,74.61c.06.3.11.62.14.96.01.18-.05.34-.19.45-.11.09-.24.13-.38.11l.42-1.51Z"/>
        <path class="cls-1" d="m381.12,15.16v50.07h4.85v-16.85l6.33-.66c1.62-.17,2.98-.89,4.08-2.1,1.1-1.2,1.65-2.64,1.65-4.3v-21.1c0-1.81-.63-3.35-1.88-4.6-1.25-1.25-2.78-1.88-4.6-1.88h-9.03c-.78,0-1.42.64-1.42,1.42m12.06,26.16c0,.93-.48,1.52-1.47,1.62l-5.74.59v-24.93h5.59c.44,0,.82.16,1.14.48.32.32.48.7.48,1.14v21.1Z"/>
        <path class="cls-1" d="m415.99,58.76c0,.44-.16.82-.48,1.14-.32.32-.7.48-1.14.48h-3.97c-.44,0-.82-.16-1.14-.48-.32-.32-.48-.7-.48-1.14V20.22c0-.44.16-.82.48-1.14s.7-.48,1.14-.48h3.97c.44,0,.82.16,1.14.48.32.32.48.7.48,1.14v38.54Zm-1.62-45.01h-3.97c-1.81,0-3.35.63-4.6,1.88s-1.88,2.78-1.88,4.6v38.54c0,1.81.63,3.35,1.88,4.6,1.25,1.25,2.78,1.88,4.6,1.88h3.97c1.81,0,3.35-.62,4.6-1.88,1.25-1.25,1.88-2.78,1.88-4.6V20.22c0-1.81-.63-3.35-1.88-4.6-1.25-1.25-2.78-1.88-4.6-1.88Z"/>
        <path class="cls-1" d="m431.58,13.74h-3.44c-.78,0-1.42.64-1.42,1.42v50.07h14.49v-4.85h-9.63V13.74Z"/>
        <path class="cls-1" d="m452.02,65.23V13.74h-3.44c-.78,0-1.42.64-1.42,1.42v50.07h4.85Z"/>
        <path class="cls-1" d="m468.35,13.74h-3.97c-1.81,0-3.35.63-4.6,1.88s-1.88,2.78-1.88,4.6v14.16c0,1.23.33,2.37.99,3.42.66,1.05,1.55,1.86,2.68,2.39l7.5,3.53c.62.29.88.83.88,1.47v13.57c0,.44-.16.82-.48,1.14-.32.32-.7.48-1.14.48h-3.97c-.44,0-.82-.16-1.14-.48-.32-.32-.48-.7-.48-1.14v-4.85h-3.44c-.78,0-1.42.64-1.42,1.42v3.44c0,1.81.63,3.35,1.88,4.6,1.25,1.25,2.78,1.88,4.6,1.88h3.97c1.81,0,3.35-.63,4.6-1.88,1.25-1.25,1.88-2.78,1.88-4.6v-13.57c0-1.27-.33-2.44-.99-3.49-.66-1.05-1.55-1.86-2.68-2.39l-7.5-3.53c-.58-.27-.88-.71-.88-1.4v-14.16c0-.44.16-.82.48-1.14s.7-.48,1.14-.48h3.97c.44,0,.82.16,1.14.48.32.32.48.7.48,1.14v4.85h4.85v-4.85c0-1.81-.63-3.35-1.88-4.6-1.25-1.25-2.78-1.88-4.6-1.88"/>
        <path class="cls-1" d="m364.8,13.74c-1.81,0-3.35.63-4.6,1.88-1.25,1.25-1.88,2.78-1.88,4.6v45.01h4.85v-16.81h7.21v16.81h4.85V20.22c0-1.81-.63-3.35-1.88-4.6-1.25-1.25-2.78-1.88-4.6-1.88h-3.97Zm-1.62,6.47c0-.44.16-.82.48-1.14s.7-.48,1.14-.48h3.97c.44,0,.82.16,1.14.48s.48.7.48,1.14v23.36l-7.21-.08v-23.28Z"/>
        <path class="cls-1" d="m352.44,65.23V13.74h-4.85v35.66l-9.93-35.66h-3.44c-.78,0-1.42.64-1.42,1.42v50.07h4.85V31.1l9.93,34.13h0s4.85,0,4.85,0Z"/>
        <path class="cls-2" d="m371.38,9.8l-1.33,1.32c-.15.16-.36.27-.6.27-1.15,0-2.3,0-3.45,0-.2,0-.39-.08-.54-.23-.3-.31-.3-.8,0-1.11l1.33-1.31c.15-.16.36-.27.59-.27,1.15,0,2.3,0,3.44,0,.2,0,.39.08.55.23.31.31.3.8,0,1.1"/>
        <path class="cls-1" d="m316.48,13.74c-1.81,0-3.35.63-4.6,1.88-1.25,1.25-1.88,2.78-1.88,4.6v45.01h4.85v-16.81h7.21v16.81h4.85V20.22c0-1.81-.63-3.35-1.88-4.6-1.25-1.25-2.78-1.88-4.6-1.88h-3.97Zm-1.62,6.47c0-.44.16-.82.48-1.14.32-.32.7-.48,1.14-.48h3.97c.44,0,.82.16,1.14.48s.48.7.48,1.14v23.36l-7.21-.08v-23.28Z"/>
        <path class="cls-1" d="m474.43,89.17h-1.64v-10.11h1.64v10.11Zm-1.91-12.92c0-.33.11-.6.33-.82.22-.22.49-.33.82-.33s.6.11.82.33c.22.22.33.49.33.82s-.11.6-.33.82c-.22.22-.49.33-.82.33s-.6-.11-.82-.33c-.22-.22-.33-.49-.33-.82Zm-6.05,13.11c-.48,0-.95-.07-1.4-.21-.46-.14-.86-.35-1.22-.63-.36-.28-.65-.63-.87-1.04-.22-.42-.33-.9-.33-1.46v-6.95h1.56v6.97c0,.3.07.56.2.79.13.23.3.42.52.58.21.16.46.28.72.36.27.08.54.13.83.13.45,0,.88-.03,1.28-.08.4-.05.76-.14,1.1-.25v-8.49h1.56v9.56c-.47.17-.9.3-1.29.4-.39.1-.75.17-1.07.22-.33.05-.62.08-.88.1-.26.01-.49.02-.7.02Zm-10.19-9.09c-.29,0-.57.04-.85.13-.28.08-.53.21-.74.37-.21.16-.38.36-.51.6-.12.23-.19.5-.19.8v3.96c0,.3.07.56.2.79.13.23.31.42.53.58.22.16.47.28.74.37.27.09.56.14.86.14.4,0,.8-.04,1.2-.12.4-.08.78-.19,1.16-.33v-6.97c-.47-.14-.88-.23-1.25-.26-.36-.03-.75-.05-1.15-.05Zm-.14,9.09c-.49,0-.97-.07-1.41-.21-.45-.14-.85-.36-1.19-.64-.34-.29-.62-.64-.82-1.06-.2-.42-.3-.91-.3-1.45v-3.77c0-.56.11-1.05.33-1.47.22-.42.51-.77.88-1.04.36-.27.78-.48,1.24-.62.46-.14.93-.21,1.42-.21.65,0,1.29.06,1.93.17.64.11,1.31.28,2.03.52v13.15h-1.56v-3.88c-.34.21-.74.35-1.22.43-.47.08-.91.12-1.32.12Zm-9.58-5.15c-.31,0-.61.04-.91.11-.29.07-.55.19-.77.34-.22.16-.4.36-.54.61-.14.25-.2.56-.2.93,0,.65.2,1.12.6,1.4.4.28.9.43,1.5.44h.43c.29,0,.57,0,.86-.02.44-.03.87-.08,1.29-.18v-3.24c-.31-.1-.66-.2-1.05-.27-.39-.08-.79-.12-1.21-.12Zm2.26-2.09c0-.29-.07-.54-.21-.77-.14-.23-.32-.42-.54-.58-.22-.16-.48-.27-.76-.35-.29-.08-.58-.12-.88-.12-.46,0-.91.09-1.37.26-.46.18-.83.45-1.13.83l-.98-.96c.47-.52,1.02-.91,1.67-1.18.64-.27,1.28-.4,1.92-.4.48,0,.95.07,1.41.2.46.14.87.34,1.23.61.36.27.64.6.86,1.01s.32.89.32,1.43v6.56c-.7.25-1.4.42-2.11.53-.62.1-1.24.16-1.85.16h-.21c-.51,0-.98-.06-1.42-.2-.44-.13-.82-.33-1.14-.59-.32-.26-.57-.59-.76-.98-.19-.39-.28-.86-.28-1.4s.11-1.04.32-1.44c.21-.4.5-.73.85-1,.35-.26.75-.46,1.21-.59.46-.13.93-.2,1.42-.2.85,0,1.65.16,2.42.49v-1.35Zm-11.65-1.78c-.31,0-.6.04-.88.12-.27.08-.51.2-.72.36-.21.16-.37.36-.5.6-.12.23-.19.51-.19.82v6.93h-1.56v-6.93c0-.57.11-1.07.34-1.49.23-.42.52-.77.89-1.04.36-.27.77-.48,1.22-.62.45-.14.89-.21,1.34-.21.14,0,.29,0,.44.02.15.01.3.03.44.06v1.46c-.14-.03-.28-.04-.41-.05-.13,0-.27,0-.41,0Zm-7.3,1.79c0-.3-.07-.56-.21-.79-.14-.23-.33-.42-.55-.58-.22-.16-.47-.28-.76-.36-.29-.08-.57-.13-.86-.13-.33,0-.63.04-.92.13-.29.08-.54.2-.75.36-.21.16-.38.35-.5.59-.12.23-.18.51-.18.82v1.4h4.72v-1.44Zm-4.72,3.98c0,.31.07.58.2.8.13.22.31.41.53.56.22.15.47.26.75.33.28.07.57.11.87.11.46,0,.9-.11,1.34-.33.44-.22.76-.57.97-1.03l1.37.59c-.18.38-.41.7-.67.98-.27.27-.56.5-.88.69-.32.19-.66.33-1.02.42-.36.09-.73.14-1.09.14-.49,0-.98-.07-1.44-.2-.47-.14-.88-.34-1.25-.62-.36-.28-.66-.63-.89-1.05-.23-.42-.34-.91-.34-1.47v-3.78c0-.56.11-1.05.34-1.47.23-.42.52-.77.89-1.05.36-.28.78-.49,1.25-.62.47-.14.95-.2,1.44-.2s.95.07,1.41.2c.46.14.87.34,1.24.62.36.28.66.63.88,1.05.22.42.33.91.33,1.47v2.67h-6.2v1.23Zm-6.15-1.19l2.03-5.87h1.6l-3.57,10.11h-1.85l-3.57-10.11h1.62l2.03,5.91.86,2.79h.04l.82-2.83Zm-6.79,4.23h-1.64v-10.11h1.64v10.11Zm-1.91-12.92c0-.33.11-.6.33-.82.22-.22.49-.33.82-.33s.6.11.82.33c.22.22.33.49.33.82s-.11.6-.33.82c-.22.22-.49.33-.82.33s-.6-.11-.82-.33c-.22-.22-.33-.49-.33-.82Zm-4.7,8.68l2.03-5.87h1.6l-3.57,10.11h-1.85l-3.57-10.11h1.62l2.03,5.91.86,2.79h.04l.82-2.83Zm-11.49-2.79c0-.3-.07-.56-.21-.79-.14-.23-.33-.42-.55-.58-.22-.16-.47-.28-.76-.36-.29-.08-.57-.13-.86-.13-.33,0-.63.04-.92.13-.29.08-.54.2-.75.36-.21.16-.38.35-.5.59-.12.23-.18.51-.18.82v1.4h4.72v-1.44Zm-4.72,3.98c0,.31.07.58.2.8.13.22.31.41.53.56.22.15.47.26.75.33.28.07.57.11.87.11.46,0,.9-.11,1.34-.33.44-.22.76-.57.97-1.03l1.37.59c-.18.38-.41.7-.67.98-.27.27-.56.5-.88.69-.32.19-.66.33-1.02.42-.36.09-.73.14-1.09.14-.49,0-.98-.07-1.44-.2-.47-.14-.88-.34-1.25-.62-.36-.28-.66-.63-.89-1.05-.23-.42-.34-.91-.34-1.47v-3.78c0-.56.11-1.05.34-1.47.23-.42.52-.77.89-1.05.36-.28.78-.49,1.25-.62.47-.14.95-.2,1.44-.2s.95.07,1.41.2c.46.14.87.34,1.24.62.36.28.66.63.88,1.05.22.42.33.91.33,1.47v2.67h-6.21v1.23Zm-7.69,1.85c.39,0,.79-.02,1.21-.06.42-.04.81-.12,1.19-.23v-6.85c-.38-.2-.77-.34-1.18-.43-.41-.09-.8-.14-1.18-.14-.3,0-.59.04-.86.13-.27.08-.52.21-.74.37-.22.16-.4.37-.53.62-.13.25-.2.54-.2.87v3.73c0,.3.07.57.2.81.13.24.3.45.52.62.21.18.46.31.73.41.27.1.55.15.84.15Zm-3.86-1.97v-3.75c0-.55.11-1.03.33-1.45.22-.42.52-.77.89-1.05.37-.28.79-.49,1.25-.64.46-.15.94-.22,1.43-.22.43,0,.84.05,1.23.14.39.09.77.25,1.13.49v-4h1.56v13.13c-.66.22-1.33.4-1.99.53-.66.13-1.32.2-1.97.2-.48-.01-.95-.09-1.41-.22-.46-.14-.87-.34-1.24-.62-.36-.28-.66-.63-.88-1.04-.22-.42-.33-.9-.33-1.46Zm-9.85-5.66c-.29,0-.57.04-.85.11-.28.07-.53.19-.76.34-.23.16-.41.35-.55.59-.14.23-.21.51-.21.82v3.8c0,.31.07.59.21.82.14.23.32.43.55.59.23.16.48.27.76.35.28.08.56.12.85.12s.55-.04.82-.12c.27-.08.52-.2.75-.35.23-.16.41-.35.55-.59.14-.23.21-.51.21-.82v-3.8c0-.31-.07-.59-.21-.82-.14-.23-.32-.43-.55-.59-.23-.16-.48-.27-.75-.34-.27-.07-.55-.11-.82-.11Zm-3.92,1.89c0-.56.11-1.05.34-1.47.23-.42.52-.77.89-1.05.36-.28.78-.49,1.25-.63.47-.14.95-.21,1.44-.21s.96.07,1.42.21c.47.14.88.35,1.25.63.36.28.66.63.88,1.05.22.42.33.91.33,1.47v3.75c0,.57-.11,1.07-.33,1.48-.22.42-.51.76-.88,1.04-.36.28-.78.49-1.25.63-.47.14-.94.21-1.42.21s-.98-.07-1.44-.21c-.47-.14-.88-.35-1.25-.63-.36-.28-.66-.63-.89-1.04-.23-.42-.34-.91-.34-1.48v-3.75Zm-5.68-3.38c.43,0,.85.06,1.27.18.46.13.85.33,1.19.61.34.27.61.62.82,1.05.21.43.31.94.31,1.52v6.95h-1.54v-6.97c0-.33-.07-.61-.2-.84-.14-.23-.31-.43-.53-.59-.21-.16-.46-.27-.74-.35-.28-.08-.56-.12-.85-.12-.4,0-.78.04-1.13.11-.35.07-.75.2-1.21.4v8.35h-1.56v-13.62h1.56v3.9c.42-.21.84-.36,1.26-.45.42-.09.83-.14,1.22-.14h.14Zm-5.54,10.5c-1.11,0-1.95-.29-2.55-.87-.59-.58-.89-1.39-.89-2.43v-10.54h1.56v10.54c0,.56.15,1,.45,1.34.3.33.77.5,1.42.5v1.46Zm-9.76,0c-.48,0-.95-.07-1.4-.21-.46-.14-.86-.35-1.22-.63-.36-.28-.65-.63-.87-1.04-.22-.42-.33-.9-.33-1.46v-6.95h1.56v6.97c0,.3.07.56.2.79.13.23.3.42.52.58.21.16.46.28.72.36.27.08.54.13.83.13.45,0,.88-.03,1.28-.08.4-.05.76-.14,1.1-.25v-8.49h1.56v9.56c-.47.17-.9.3-1.29.4-.39.1-.75.17-1.07.22-.33.05-.62.08-.88.1-.26.01-.49.02-.7.02Zm-10.13-9.07c-.29,0-.56.05-.83.14-.27.09-.51.22-.72.38-.21.16-.38.36-.51.6-.12.24-.19.51-.19.81v3.86c0,.59.22,1.05.67,1.39.45.34.99.51,1.61.51.44,0,.85-.04,1.21-.11.36-.07.74-.18,1.13-.32v-6.85c-.4-.16-.79-.26-1.15-.32-.36-.06-.77-.09-1.23-.09Zm-.04,11.2c.3,0,.6-.03.89-.08.29-.05.55-.15.78-.28.23-.14.41-.32.55-.56.14-.23.2-.53.2-.9v-.84c-.38.2-.76.33-1.14.41-.38.08-.77.12-1.16.12-.49,0-.97-.07-1.43-.21-.46-.14-.87-.35-1.24-.63-.36-.28-.66-.63-.88-1.05-.22-.42-.33-.91-.33-1.45v-3.82c0-.55.11-1.03.32-1.44.21-.42.5-.76.86-1.04.36-.28.76-.49,1.22-.62.46-.14.92-.2,1.4-.2.34,0,.66.01.97.04.31.03.61.07.93.13.31.06.63.14.96.24.33.1.68.23,1.07.39v10.01c0,.57-.11,1.06-.33,1.47-.22.41-.51.74-.87,1-.36.26-.76.46-1.22.59-.45.13-.92.2-1.4.2-.66,0-1.31-.12-1.93-.37s-1.16-.62-1.62-1.11l.96-.96c.1.14.25.27.44.39.19.12.4.22.62.31.23.09.46.16.7.21.24.05.47.08.69.08Zm-5.58-11.14c-.31,0-.61.04-.88.12-.27.08-.51.2-.72.36-.21.16-.37.36-.5.6-.12.23-.19.51-.19.82v6.93h-1.56v-6.93c0-.57.11-1.07.34-1.49.23-.42.52-.77.89-1.04.36-.27.77-.48,1.22-.62.45-.14.89-.21,1.34-.21.14,0,.29,0,.44.02.15.01.3.03.44.06v1.46c-.14-.03-.28-.04-.41-.05-.13,0-.27,0-.41,0Zm-15.49,4.64c0,.45.11.85.33,1.19.22.34.51.62.88.85.36.23.78.4,1.25.52.47.12.95.18,1.44.18s.96-.06,1.42-.18c.47-.12.89-.29,1.26-.52.37-.23.67-.51.89-.85.22-.34.33-.74.33-1.19v-5.5c0-.48-.11-.89-.34-1.24-.23-.34-.52-.63-.89-.85-.36-.22-.78-.38-1.26-.49-.47-.1-.95-.16-1.43-.16s-.97.06-1.43.17c-.46.11-.87.28-1.24.51-.36.23-.66.51-.88.85-.22.34-.33.74-.33,1.21v5.5Zm-1.62-5.5c0-.72.16-1.35.47-1.89.31-.55.73-1,1.25-1.36.52-.36,1.11-.63,1.78-.81.66-.18,1.34-.27,2.03-.27s1.37.09,2.03.27c.66.18,1.25.45,1.77.81.51.36.93.81,1.25,1.36.32.55.48,1.18.48,1.89v5.52c0,.73-.16,1.36-.48,1.9-.32.54-.73.99-1.25,1.36-.51.36-1.1.64-1.77.82-.66.18-1.34.27-2.03.27s-1.37-.09-2.03-.27c-.66-.18-1.26-.45-1.78-.82-.52-.36-.94-.82-1.25-1.36-.31-.54-.47-1.17-.47-1.9v-5.52Z"/>
        <g>
          <path class="cls-1" d="m0,35.33c0-.76.16-1.43.48-2.01.32-.58.74-1.06,1.27-1.46.53-.4,1.13-.7,1.8-.9.67-.2,1.37-.3,2.07-.3.53,0,1.05.06,1.57.18s1.01.3,1.47.55c.46.25.88.56,1.25.93s.68.8.92,1.3l-1.56.75c-.35-.67-.87-1.17-1.55-1.5-.69-.33-1.41-.5-2.16-.5-.47,0-.94.06-1.4.19s-.86.31-1.22.55c-.35.24-.64.55-.86.92-.22.37-.33.79-.33,1.26v5.94c0,.49.11.91.33,1.26.22.35.51.65.86.89.35.24.76.41,1.22.53s.92.18,1.4.18c.76,0,1.49-.17,2.18-.5.69-.33,1.2-.83,1.53-1.48l1.56.73c-.24.5-.55.94-.93,1.31-.38.38-.81.69-1.27.94-.47.25-.96.44-1.49.56-.53.12-1.06.19-1.58.19-.69,0-1.38-.1-2.04-.29s-1.26-.48-1.78-.87c-.52-.38-.94-.86-1.26-1.44-.32-.58-.48-1.25-.48-2.01v-5.9Z"/>
          <path class="cls-1" d="m12.07,38.22c0-.6.12-1.12.36-1.57.24-.45.56-.83.95-1.12s.83-.52,1.33-.68c.5-.15,1.01-.23,1.54-.23s1.02.08,1.52.23c.5.15.94.38,1.33.68s.7.67.94,1.12c.24.45.35.98.35,1.57v4c0,.61-.12,1.14-.35,1.58-.24.45-.55.82-.94,1.12s-.83.53-1.33.68c-.5.15-1.01.23-1.52.23s-1.04-.08-1.54-.23-.94-.38-1.33-.68-.71-.67-.95-1.12c-.24-.44-.36-.97-.36-1.58v-4Zm4.19-2.02c-.31,0-.61.04-.91.11s-.57.2-.81.36c-.24.17-.44.38-.58.63s-.22.54-.22.88v4.06c0,.33.07.62.22.88s.34.46.58.62c.24.17.51.29.81.38.3.08.6.12.91.12s.58-.04.88-.12c.29-.08.56-.21.8-.38.24-.17.44-.38.58-.62s.22-.54.22-.88v-4.06c0-.33-.07-.62-.22-.88s-.34-.46-.58-.63c-.24-.17-.51-.29-.8-.36-.29-.08-.58-.11-.88-.11Z"/>
          <path class="cls-1" d="m30.74,38.16v7.46h-1.65v-7.52c0-.33-.07-.62-.22-.87s-.33-.44-.56-.6c-.23-.16-.49-.28-.77-.35-.29-.08-.57-.11-.86-.11-.49,0-.96.05-1.41.16s-.83.21-1.14.32v8.98h-1.67v-10.11c.69-.24,1.4-.44,2.12-.62.72-.18,1.41-.27,2.09-.27.51.01,1.01.09,1.5.24.49.15.92.37,1.3.66.38.29.69.66.92,1.09.23.44.34.96.34,1.55Z"/>
          <path class="cls-1" d="m36.79,45.83c-.54,0-1.05-.08-1.51-.24-.47-.16-.86-.39-1.2-.7s-.59-.68-.78-1.12c-.19-.44-.28-.93-.28-1.49v-10.19h1.65v2.73h2.21v1.54h-2.21v5.92c0,.31.06.6.19.89.12.28.31.53.55.73.24.2.53.34.87.43.18.06.38.08.58.08.18,0,.38-.02.58-.06v1.44c-.11.01-.22.02-.32.03-.1,0-.21.01-.32.01Z"/>
          <path class="cls-1" d="m42.81,36.2c-.33,0-.65.04-.94.12-.29.08-.55.21-.77.38-.22.17-.4.39-.53.64-.13.25-.2.54-.2.88v7.4h-1.67v-7.4c0-.61.12-1.14.36-1.59.24-.45.56-.82.95-1.12.39-.29.82-.51,1.3-.67.48-.15.96-.23,1.43-.23.15,0,.31,0,.47.02s.32.04.47.06v1.56c-.15-.03-.3-.04-.44-.05-.14,0-.28,0-.44,0Z"/>
          <path class="cls-1" d="m44.54,38.22c0-.6.12-1.12.36-1.57.24-.45.56-.83.95-1.12s.83-.52,1.33-.68c.5-.15,1.01-.23,1.54-.23s1.02.08,1.52.23c.5.15.94.38,1.33.68s.7.67.94,1.12c.24.45.35.98.35,1.57v4c0,.61-.12,1.14-.35,1.58-.24.45-.55.82-.94,1.12s-.83.53-1.33.68c-.5.15-1.01.23-1.52.23s-1.04-.08-1.54-.23-.94-.38-1.33-.68-.71-.67-.95-1.12c-.24-.44-.36-.97-.36-1.58v-4Zm4.19-2.02c-.31,0-.61.04-.91.11s-.57.2-.81.36c-.24.17-.44.38-.58.63s-.22.54-.22.88v4.06c0,.33.07.62.22.88s.34.46.58.62c.24.17.51.29.81.38.3.08.6.12.91.12s.58-.04.88-.12c.29-.08.56-.21.8-.38.24-.17.44-.38.58-.62s.22-.54.22-.88v-4.06c0-.33-.07-.62-.22-.88s-.34-.46-.58-.63c-.24-.17-.51-.29-.8-.36-.29-.08-.58-.11-.88-.11Z"/>
          <path class="cls-1" d="m58.56,45.83c-1.18,0-2.09-.31-2.72-.93s-.95-1.48-.95-2.59v-11.25h1.67v11.25c0,.6.16,1.07.48,1.43.32.35.83.53,1.52.53v1.56Z"/>
          <path class="cls-1" d="m65.8,38.1c0-.31-.07-.58-.22-.82-.15-.24-.34-.45-.57-.62-.24-.17-.51-.29-.81-.38s-.62-.12-.94-.12c-.49,0-.97.09-1.46.28s-.89.48-1.21.89l-1.04-1.02c.5-.56,1.09-.98,1.78-1.26.69-.28,1.37-.43,2.05-.43.51,0,1.02.07,1.51.22.49.15.93.36,1.31.65.38.29.69.65.92,1.08.23.44.34.95.34,1.53v7c-.75.26-1.5.45-2.25.56-.67.11-1.33.17-1.98.17h-.23c-.54,0-1.05-.07-1.52-.21-.47-.14-.88-.35-1.22-.62-.34-.28-.61-.62-.81-1.04-.2-.42-.3-.92-.3-1.5s.11-1.11.34-1.54c.23-.43.53-.79.91-1.06.38-.28.81-.49,1.29-.62.49-.14.99-.21,1.52-.21.9,0,1.76.17,2.58.52v-1.44Zm-2.42,2.23c-.33,0-.66.04-.97.12-.31.08-.59.2-.82.36-.24.17-.43.39-.57.66-.15.27-.22.6-.22.99,0,.7.21,1.19.65,1.49.43.3.97.46,1.6.47h.46c.31,0,.61,0,.92-.02.47-.03.93-.09,1.38-.19v-3.46c-.33-.11-.71-.21-1.13-.29-.42-.08-.85-.12-1.29-.12Z"/>
          <path class="cls-1" d="m69.4,42.25v-4c0-.58.12-1.1.35-1.55.24-.45.55-.83.95-1.12s.84-.53,1.33-.69c.49-.16,1-.24,1.53-.24.46,0,.9.05,1.31.15.42.1.82.27,1.21.52v-4.27h1.67v14.03c-.71.24-1.42.42-2.13.56-.71.14-1.41.21-2.1.21-.51-.01-1.02-.09-1.51-.24-.49-.15-.93-.37-1.32-.67s-.7-.67-.94-1.12c-.24-.44-.35-.96-.35-1.56Zm4.13,2.1c.42,0,.85-.02,1.29-.06.44-.04.87-.12,1.27-.25v-7.32c-.4-.21-.82-.36-1.26-.46-.44-.1-.86-.15-1.26-.15-.32,0-.63.05-.92.14-.29.09-.56.22-.79.4-.24.17-.42.4-.56.67-.14.27-.21.58-.21.93v3.98c0,.32.07.61.21.87.14.26.32.48.55.67.23.19.49.33.78.44.29.1.59.16.9.16Z"/>
          <path class="cls-1" d="m79.8,38.22c0-.6.12-1.12.36-1.57.24-.45.56-.83.95-1.12s.83-.52,1.33-.68c.5-.15,1.01-.23,1.54-.23s1.02.08,1.52.23c.5.15.94.38,1.33.68s.7.67.94,1.12c.24.45.35.98.35,1.57v4c0,.61-.12,1.14-.35,1.58-.24.45-.55.82-.94,1.12s-.83.53-1.33.68c-.5.15-1.01.23-1.52.23s-1.04-.08-1.54-.23-.94-.38-1.33-.68-.71-.67-.95-1.12c-.24-.44-.36-.97-.36-1.58v-4Zm4.19-2.02c-.31,0-.61.04-.91.11s-.57.2-.81.36c-.24.17-.44.38-.58.63s-.22.54-.22.88v4.06c0,.33.07.62.22.88s.34.46.58.62c.24.17.51.29.81.38.3.08.6.12.91.12s.58-.04.88-.12c.29-.08.56-.21.8-.38.24-.17.44-.38.58-.62s.22-.54.22-.88v-4.06c0-.33-.07-.62-.22-.88s-.34-.46-.58-.63c-.24-.17-.51-.29-.8-.36-.29-.08-.58-.11-.88-.11Z"/>
          <path class="cls-1" d="m94.27,36.2c-.33,0-.65.04-.94.12-.29.08-.55.21-.77.38-.22.17-.4.39-.53.64-.13.25-.2.54-.2.88v7.4h-1.67v-7.4c0-.61.12-1.14.36-1.59.24-.45.56-.82.95-1.12.39-.29.82-.51,1.3-.67.48-.15.96-.23,1.43-.23.15,0,.31,0,.47.02s.32.04.47.06v1.56c-.15-.03-.3-.04-.44-.05-.14,0-.28,0-.44,0Z"/>
          <path class="cls-1" d="m96.14,31.82c0-.35.12-.64.35-.88.24-.24.53-.35.88-.35s.64.12.88.35c.24.24.35.53.35.88s-.12.64-.35.88c-.24.24-.53.35-.88.35s-.64-.12-.88-.35-.35-.53-.35-.88Zm2.04,13.8h-1.75v-10.8h1.75v10.8Z"/>
          <path class="cls-1" d="m106.63,38.1c0-.31-.07-.58-.22-.82-.15-.24-.34-.45-.57-.62-.24-.17-.51-.29-.81-.38s-.62-.12-.94-.12c-.49,0-.97.09-1.46.28s-.89.48-1.21.89l-1.04-1.02c.5-.56,1.09-.98,1.78-1.26.69-.28,1.37-.43,2.05-.43.51,0,1.02.07,1.51.22.49.15.93.36,1.31.65.38.29.69.65.92,1.08.23.44.34.95.34,1.53v7c-.75.26-1.5.45-2.25.56-.67.11-1.33.17-1.98.17h-.23c-.54,0-1.05-.07-1.52-.21-.47-.14-.88-.35-1.22-.62-.34-.28-.61-.62-.81-1.04-.2-.42-.3-.92-.3-1.5s.11-1.11.34-1.54c.23-.43.53-.79.91-1.06.38-.28.81-.49,1.29-.62.49-.14.99-.21,1.52-.21.9,0,1.76.17,2.58.52v-1.44Zm-2.42,2.23c-.33,0-.66.04-.97.12-.31.08-.59.2-.82.36-.24.17-.43.39-.57.66-.15.27-.22.6-.22.99,0,.7.21,1.19.65,1.49.43.3.97.46,1.6.47h.46c.31,0,.61,0,.92-.02.47-.03.93-.09,1.38-.19v-3.46c-.33-.11-.71-.21-1.13-.29-.42-.08-.85-.12-1.29-.12Z"/>
          <path class="cls-1" d="m115.88,40.27h-5.44v-1.71h5.44v1.71Z"/>
          <path class="cls-1" d="m117.96,35.26c0-.76.16-1.43.48-2,.32-.57.74-1.05,1.26-1.44.52-.39,1.12-.68,1.79-.88.67-.19,1.36-.29,2.05-.29.53,0,1.05.06,1.57.19s1.01.31,1.47.56c.46.25.88.56,1.25.94.38.38.68.81.92,1.31l-1.58.71c-.17-.33-.38-.63-.65-.88-.26-.25-.56-.46-.88-.62-.32-.17-.66-.29-1.03-.38-.37-.08-.74-.12-1.12-.12-.47,0-.94.06-1.4.18s-.86.3-1.22.53c-.35.24-.64.54-.86.9-.22.36-.33.78-.33,1.25v5.94c0,.49.11.91.33,1.28.22.37.51.67.88.92.36.24.77.42,1.23.54s.93.18,1.42.18.94-.06,1.41-.18c.47-.12.88-.3,1.25-.54s.66-.55.89-.92c.22-.37.33-.8.33-1.28v-1.48h-4.36v-1.73h6.09v3.21c0,.78-.16,1.46-.48,2.04-.32.58-.74,1.07-1.27,1.46-.53.39-1.13.68-1.79.88s-1.35.29-2.06.29-1.4-.1-2.06-.29-1.26-.49-1.78-.88c-.52-.39-.94-.88-1.26-1.46-.32-.58-.48-1.26-.48-2.04v-5.9Z"/>
          <path class="cls-1" d="m132.49,42.37c0,.33.07.62.21.85.14.24.33.43.56.59.24.16.5.28.8.35s.61.11.93.11c.49,0,.96-.12,1.43-.35s.81-.6,1.03-1.11l1.46.63c-.19.4-.43.75-.72,1.04s-.6.54-.94.74c-.34.2-.71.35-1.09.45-.39.1-.78.15-1.17.15-.53,0-1.04-.07-1.54-.22-.5-.15-.95-.37-1.33-.67-.39-.3-.71-.67-.95-1.13-.24-.45-.36-.98-.36-1.57v-4.04c0-.6.12-1.12.36-1.57.24-.45.56-.83.95-1.12.39-.3.83-.52,1.33-.67.5-.15,1.01-.22,1.54-.22s1.02.07,1.51.22c.49.15.93.37,1.32.67s.7.67.94,1.12c.24.45.35.98.35,1.57v2.86h-6.63v1.31Zm5.04-4.25c0-.32-.08-.6-.23-.84s-.35-.45-.58-.62-.51-.29-.81-.39c-.31-.09-.61-.13-.92-.13-.35,0-.67.04-.98.13-.31.09-.57.22-.8.39-.23.17-.41.38-.53.62-.12.25-.19.54-.19.88v1.5h5.04v-1.54Z"/>
          <path class="cls-1" d="m145.1,36.2c-.33,0-.65.04-.94.12-.29.08-.55.21-.77.38-.22.17-.4.39-.53.64-.13.25-.2.54-.2.88v7.4h-1.67v-7.4c0-.61.12-1.14.36-1.59.24-.45.56-.82.95-1.12.39-.29.82-.51,1.3-.67.48-.15.96-.23,1.43-.23.15,0,.31,0,.47.02s.32.04.47.06v1.56c-.15-.03-.3-.04-.44-.05-.14,0-.28,0-.44,0Z"/>
          <path class="cls-1" d="m153.27,38.1c0-.31-.07-.58-.22-.82-.15-.24-.34-.45-.57-.62-.24-.17-.51-.29-.81-.38s-.62-.12-.94-.12c-.49,0-.97.09-1.46.28s-.89.48-1.21.89l-1.04-1.02c.5-.56,1.09-.98,1.78-1.26.69-.28,1.37-.43,2.05-.43.51,0,1.02.07,1.51.22.49.15.93.36,1.31.65.38.29.69.65.92,1.08.23.44.34.95.34,1.53v7c-.75.26-1.5.45-2.25.56-.67.11-1.33.17-1.98.17h-.23c-.54,0-1.05-.07-1.52-.21-.47-.14-.88-.35-1.22-.62-.34-.28-.61-.62-.81-1.04-.2-.42-.3-.92-.3-1.5s.11-1.11.34-1.54c.23-.43.53-.79.91-1.06.38-.28.81-.49,1.29-.62.49-.14.99-.21,1.52-.21.9,0,1.76.17,2.58.52v-1.44Zm-2.42,2.23c-.33,0-.66.04-.97.12-.31.08-.59.2-.82.36-.24.17-.43.39-.57.66-.15.27-.22.6-.22.99,0,.7.21,1.19.65,1.49.43.3.97.46,1.6.47h.46c.31,0,.61,0,.92-.02.47-.03.93-.09,1.38-.19v-3.46c-.33-.11-.71-.21-1.13-.29-.42-.08-.85-.12-1.29-.12Z"/>
          <path class="cls-1" d="m160.79,45.83c-1.18,0-2.09-.31-2.72-.93s-.95-1.48-.95-2.59v-11.25h1.67v11.25c0,.6.16,1.07.48,1.43.32.35.83.53,1.52.53v1.56Z"/>
          <path class="cls-1" d="m56.63,67.25v-4c0-.58.12-1.1.35-1.55.24-.45.55-.83.95-1.12s.84-.53,1.33-.69c.49-.16,1-.24,1.53-.24.46,0,.9.05,1.31.15.42.1.82.27,1.21.52v-4.27h1.67v14.03c-.71.24-1.42.42-2.13.56-.71.14-1.41.21-2.1.21-.51-.01-1.02-.09-1.51-.24-.49-.15-.93-.37-1.32-.67s-.7-.67-.94-1.12c-.24-.44-.35-.96-.35-1.56Zm4.13,2.1c.42,0,.85-.02,1.29-.06.44-.04.87-.12,1.27-.25v-7.32c-.4-.21-.82-.36-1.26-.46-.44-.1-.86-.15-1.26-.15-.32,0-.63.05-.92.14-.29.09-.56.22-.79.4-.24.17-.42.4-.56.67-.14.27-.21.58-.21.93v3.98c0,.32.07.61.21.87.14.26.32.48.55.67.23.19.49.33.78.44.29.1.59.16.9.16Z"/>
          <path class="cls-1" d="m67.03,63.22c0-.6.12-1.12.36-1.57.24-.45.56-.83.95-1.12s.83-.52,1.33-.68c.5-.15,1.01-.23,1.54-.23s1.02.08,1.52.23c.5.15.94.38,1.33.68s.7.67.94,1.12c.24.45.35.98.35,1.57v4c0,.61-.12,1.14-.35,1.58-.24.45-.55.82-.94,1.12s-.83.53-1.33.68c-.5.15-1.01.23-1.52.23s-1.04-.08-1.54-.23-.94-.38-1.33-.68-.71-.67-.95-1.12c-.24-.44-.36-.97-.36-1.58v-4Zm4.19-2.02c-.31,0-.61.04-.91.11s-.57.2-.81.36c-.24.17-.44.38-.58.63s-.22.54-.22.88v4.06c0,.33.07.62.22.88s.34.46.58.62c.24.17.51.29.81.38.3.08.6.12.91.12s.58-.04.88-.12c.29-.08.56-.21.8-.38.24-.17.44-.38.58-.62s.22-.54.22-.88v-4.06c0-.33-.07-.62-.22-.88s-.34-.46-.58-.63c-.24-.17-.51-.29-.8-.36-.29-.08-.58-.11-.88-.11Z"/>
          <path class="cls-1" d="m83.57,70.62h-1.75v-14.76h2.19l4.56,10.3,4.56-10.3h2.19v14.76h-1.75v-11.48l-4.25,9.54h-1.48l-4.27-9.52v11.46Z"/>
          <path class="cls-1" d="m101.98,70.83c-.51,0-1.01-.08-1.5-.23-.49-.15-.92-.38-1.3-.68-.38-.3-.69-.67-.93-1.12-.24-.44-.35-.96-.35-1.56v-7.42h1.67v7.44c0,.32.07.6.21.84.14.24.32.45.55.61.23.17.49.3.77.39.28.09.58.14.89.14.49,0,.94-.03,1.37-.08.42-.05.82-.15,1.18-.27v-9.07h1.67v10.21c-.5.18-.96.32-1.38.43-.42.1-.8.18-1.15.24-.35.05-.66.09-.94.1-.28.01-.53.02-.75.02Z"/>
          <path class="cls-1" d="m116.82,63.16v7.46h-1.65v-7.52c0-.33-.07-.62-.22-.87s-.33-.44-.56-.6c-.23-.16-.49-.28-.77-.35-.29-.08-.57-.11-.86-.11-.49,0-.96.05-1.41.16s-.83.21-1.14.32v8.98h-1.67v-10.11c.69-.24,1.4-.44,2.12-.62.72-.18,1.41-.27,2.09-.27.51.01,1.01.09,1.5.24.49.15.92.37,1.3.66.38.29.69.66.92,1.09.23.44.34.96.34,1.55Z"/>
          <path class="cls-1" d="m118.8,56.82c0-.35.12-.64.35-.88.24-.24.53-.35.88-.35s.64.12.88.35c.24.24.35.53.35.88s-.12.64-.35.88c-.24.24-.53.35-.88.35s-.64-.12-.88-.35-.35-.53-.35-.88Zm2.04,13.8h-1.75v-10.8h1.75v10.8Z"/>
          <path class="cls-1" d="m127.09,61.28c-.32,0-.63.04-.93.11-.3.08-.56.2-.79.35-.23.16-.42.36-.56.6s-.22.53-.22.87v4.04c0,.32.07.6.21.85.14.25.32.46.55.62.23.17.5.3.8.39.31.09.63.14.96.14.53,0,1.05-.12,1.55-.38.51-.25.89-.69,1.14-1.33l1.33.62c-.15.45-.37.83-.66,1.17-.28.33-.61.61-.97.83-.36.22-.75.39-1.17.49-.42.1-.83.16-1.25.16-.51,0-1.02-.07-1.52-.22-.5-.15-.94-.37-1.33-.68s-.71-.68-.95-1.13c-.24-.44-.36-.97-.36-1.58v-4c0-.6.12-1.12.36-1.57.24-.45.56-.83.95-1.14.39-.3.83-.53,1.33-.68.5-.15,1.01-.22,1.52-.22.76,0,1.47.15,2.12.44.65.29,1.23.86,1.76,1.71l-1.31.77c-.35-.56-.74-.9-1.19-1.04-.44-.14-.9-.21-1.38-.21Z"/>
          <path class="cls-1" d="m136.32,56.05l-2.13,2.77h-1.83l1.77-2.77h2.19Zm-1.85,14.57h-1.75v-10.8h1.75v10.8Z"/>
          <path class="cls-1" d="m141.12,59.62c.51,0,1.02.08,1.51.23.49.15.93.38,1.32.67.39.29.7.66.94,1.12.24.45.35.98.35,1.57v4c0,.58-.12,1.1-.35,1.55-.24.45-.55.83-.95,1.14s-.84.54-1.34.69c-.5.15-1.01.23-1.54.23-.44,0-.87-.04-1.28-.13-.41-.09-.82-.24-1.22-.45v4.17h-1.67v-14.01c.71-.24,1.42-.42,2.13-.56s1.41-.21,2.1-.21Zm-.04,9.61c.31,0,.61-.04.91-.13.3-.09.57-.22.8-.39.24-.17.42-.38.56-.62.14-.25.21-.54.21-.86v-4.04c0-.31-.07-.58-.21-.82-.14-.24-.32-.45-.55-.61-.23-.17-.49-.3-.78-.39-.29-.09-.59-.14-.9-.14-.43,0-.86.01-1.3.04-.44.03-.86.1-1.26.21v7.27c.4.15.82.27,1.24.35.42.08.85.12,1.28.12Z"/>
          <path class="cls-1" d="m146.97,56.82c0-.35.12-.64.35-.88.24-.24.53-.35.88-.35s.64.12.88.35c.24.24.35.53.35.88s-.12.64-.35.88c-.24.24-.53.35-.88.35s-.64-.12-.88-.35-.35-.53-.35-.88Zm2.04,13.8h-1.75v-10.8h1.75v10.8Z"/>
          <path class="cls-1" d="m151.1,63.22c0-.6.12-1.12.36-1.57.24-.45.56-.83.95-1.12s.83-.52,1.33-.68c.5-.15,1.01-.23,1.54-.23s1.02.08,1.52.23c.5.15.94.38,1.33.68s.7.67.94,1.12c.24.45.35.98.35,1.57v4c0,.61-.12,1.14-.35,1.58-.24.45-.55.82-.94,1.12s-.83.53-1.33.68c-.5.15-1.01.23-1.52.23s-1.04-.08-1.54-.23-.94-.38-1.33-.68-.71-.67-.95-1.12c-.24-.44-.36-.97-.36-1.58v-4Zm4.19-2.02c-.31,0-.61.04-.91.11s-.57.2-.81.36c-.24.17-.44.38-.58.63s-.22.54-.22.88v4.06c0,.33.07.62.22.88s.34.46.58.62c.24.17.51.29.81.38.3.08.6.12.91.12s.58-.04.88-.12c.29-.08.56-.21.8-.38.24-.17.44-.38.58-.62s.22-.54.22-.88v-4.06c0-.33-.07-.62-.22-.88s-.34-.46-.58-.63c-.24-.17-.51-.29-.8-.36-.29-.08-.58-.11-.88-.11Z"/>
        </g>
      </g>
    </g>
  </g>
</svg>