<?xml version="1.0" encoding="UTF-8"?>
<svg id="Camada_2" data-name="Camada 2" xmlns="http://www.w3.org/2000/svg" viewBox="0 0 150.3 156.38">
  <defs>
    <style>
      .cls-1 {
        fill: #163e70;
        fill-rule: evenodd;
      }
    </style>
  </defs>
  <g id="Camada_3" data-name="Camada 3">
    <g>
      <path class="cls-1" d="m11.51,84.98c-4.53,1.7-8.75-.44-11.51-4.5,4.62-1.7,8.08-.74,11.2,2.56.1.65.19,1.29.31,1.94m.98-.43c-.09.04-.18.08-.26.12-.03-.19-.07-.39-.1-.58.12.16.24.3.36.46Z"/>
      <path class="cls-1" d="m20.73,63.26c1.32.12,2.28,1.28,2.17,2.6-.19,2.12-2.85,2.95-4.22,1.32-1.37-1.64-.07-4.11,2.05-3.92"/>
      <path class="cls-1" d="m15.78,66.23c1.32.12,2.28,1.28,2.17,2.59-.19,2.13-2.85,2.96-4.22,1.33-1.37-1.64-.08-4.11,2.05-3.92"/>
      <path class="cls-1" d="m24.07,89.64c1.3.21,2.19,1.44,1.98,2.74-.34,2.1-3.05,2.75-4.29,1.02-1.25-1.73.21-4.1,2.31-3.76"/>
      <path class="cls-1" d="m19.34,92.48c1.31.21,2.19,1.43,1.99,2.74-.21,1.3-1.44,2.19-2.74,1.98-.22-.03-.43-.1-.61-.18-.13-.36-.26-.72-.39-1.08-.26-.73-.51-1.46-.74-2.18.46-.9,1.46-1.45,2.5-1.28"/>
      <path class="cls-1" d="m18.91,86.91c1.3.21,2.19,1.44,1.98,2.74-.34,2.11-3.05,2.75-4.31,1.02-1.24-1.73.22-4.1,2.32-3.76"/>
      <path class="cls-1" d="m26.88,108.61c1.32-.04,2.42,1,2.47,2.33.04,1.32-1,2.42-2.33,2.46-.24,0-.47-.02-.68-.08-.6-.88-1.19-1.78-1.75-2.71.18-1.1,1.12-1.96,2.28-2"/>
      <path class="cls-1" d="m17.46,106.46c.33.04.64.16.92.33.37.76.75,1.52,1.14,2.27,0,.03,0,.06-.02.09-.18,1.31-1.38,2.23-2.69,2.05-1.31-.17-2.22-1.37-2.05-2.69.18-1.31,1.38-2.23,2.69-2.05h0Z"/>
      <path class="cls-1" d="m81.28,150.29c10.06,3.9,16.11,4.84,16.56,4.16-1.42,3.54-9.74,1.91-20.43-2.47l3.87-1.69Zm-5.4-2.01c.19.16.32.16.52,0,1.23.53,2.43,1.02,3.57,1.48l-3.82,1.69c-1.24-.53-2.52-1.09-3.82-1.69l3.56-1.48Zm-15.91-8.07c5.45,3,10.45,5.43,14.89,7.41l-3.71,1.61c-5.67-2.64-11.72-5.85-17.59-9.33l.38.02c2.08.09,4.22.19,6.03.29ZM13.94,55.48c-.47,1.89-.84,3.82-1.11,5.78-.25.4-.41.87-.45,1.37-.04.43.02.86.14,1.25-1.96,20.17,5.74,42.72,19.13,57.44v3.38C14.72,107.46,7.32,78.5,13.04,55.11c.24-.7,1.13-.4.91.37Z"/>
      <path class="cls-1" d="m132.43,66.02c-.07-.01-.13-.03-.2-.04-.3-.06-.57.05-.76.29-.19.23-.23.52-.11.8.31.73.67,1.38,1.08,1.95.03-.97.02-1.91-.01-2.84v-.16m1.38.39c-.12-.04-.25-.08-.37-.12.04,1.26.03,2.55-.02,3.88.21.21.44.42.68.6-.02-1.5-.12-2.96-.29-4.35Zm5.05,4.9c-.71-2.02-2.17-3.52-3.98-4.44.15,1.46.23,2.98.24,4.54.84.46,1.8.76,2.87.93.29.04.55-.06.73-.28.19-.21.24-.49.14-.76Zm-8.8,10.94c-.2-.35-.39-.7-.55-1.08-.12-.25-.09-.52.07-.75.15-.24.39-.36.67-.35.17,0,.34,0,.52.02-.21.72-.44,1.44-.7,2.16Zm2,2.32c-.48-.37-.91-.8-1.29-1.29.37-1.02.71-2.05,1.01-3.05.49.1.95.24,1.38.42-.29,1.32-.65,2.63-1.1,3.93Zm4.37,1.37c-1.31.06-2.48-.23-3.49-.79.46-1.32.84-2.67,1.15-4.02,1.25.79,2.23,2.03,3.03,3.69.12.25.11.51-.04.75-.14.23-.37.37-.64.38Zm3.75,8.42c3.09.88,5.89-.46,7.85-3.02.17-.22.21-.49.12-.75-.1-.26-.3-.44-.57-.5-3.22-.7-5.64.38-7.78,3.01-.17.21-.23.48-.14.74.08.26.27.45.53.52Zm-10.43-3.81c-.51-.68-.92-1.46-1.22-2.31.3-.57.59-1.15.86-1.71.62.12,1.2.3,1.71.52-.47,1.19-.92,2.35-1.35,3.5Zm4.68,2.69c-1.59-.17-2.91-.83-3.93-1.82.47-1.28.98-2.57,1.5-3.9,1.57.97,2.61,2.54,3.27,4.7.08.26.03.52-.14.73-.18.21-.43.31-.7.29Zm3.08,8.8c2.95,1.31,5.9.37,8.2-1.88.2-.19.28-.46.22-.73-.06-.28-.24-.48-.5-.58-3.09-1.14-5.64-.42-8.13,1.89-.2.19-.29.43-.24.7.04.27.21.48.45.6Zm-2.89,6.32c2.38,1.13,4.81.75,6.9-.63.52-.62,1.03-1.26,1.55-1.91-.08-.21-.24-.39-.46-.47-3.06-1.21-5.62-.56-8.18,1.7-.2.18-.29.43-.25.7.04.27.2.48.44.6Zm-9.32-4.94c-.65-1.06-1.05-2.34-1.19-3.72-.03-.27.07-.52.29-.7.21-.17.48-.22.75-.12.52.18.98.39,1.42.63-.44,1.32-.86,2.62-1.27,3.91Zm3.92,2.95c-1.31-.36-2.37-1.04-3.17-1.95.45-1.43.91-2.88,1.4-4.35,1.59,1.23,2.45,3.02,2.77,5.43.03.27-.06.52-.26.7-.21.18-.47.24-.74.16Zm6.05,9.75c.37-.06.74-.15,1.1-.26.93-1.02,1.86-2.06,2.77-3.15-.12-.06-.24-.1-.35-.15-1.18,1.28-2.35,2.46-3.52,3.56Zm-4.12-.71c.81.43,1.64.67,2.46.76,1.37-1.28,2.69-2.61,3.98-3.98-2.32-.52-4.43.17-6.57,1.91-.21.17-.31.42-.29.69.03.27.18.49.42.62Zm-.51,7.86c1.45-.03,2.91-.51,4.29-1.35.24-.14.38-.38.38-.65s-.12-.52-.35-.67c-.26-.17-.5-.32-.75-.45-1.13,1.05-2.31,2.09-3.56,3.13Zm-2.97-.66c.41.2.83.35,1.24.46,1.3-1.13,2.58-2.3,3.85-3.53-.35-.11-.71-.18-1.07-.22l-.25.21c-1.25,1.07-2.51,2.09-3.78,3.08Zm-1.15-.71c.06.04.13.09.19.14,1.15-.89,2.27-1.79,3.36-2.71-1.12.15-2.26.57-3.45,1.25-.24.14-.38.36-.4.64-.02.27.1.52.31.68Zm15.58-63.17c2.86-.61,4.9-4.28,5.01-7.33.02-.3-.14-.57-.39-.71-.26-.15-.57-.15-.82.02-2.66,1.65-4.4,3.9-4.74,7.18-.02.26.07.5.25.67.19.17.44.24.7.19h0Zm-.14,6.31c.74-3.07,2.94-5.36,5.95-6.43.3-.11.6-.04.82.18.22.21.29.52.2.81-1.02,3.04-3.3,6.19-6.14,6.42-.26.01-.49-.08-.66-.28-.16-.2-.23-.44-.16-.7Zm.48,6.27c1.04-2.95,3.66-4.77,6.64-5.33.29-.06.57.05.76.29.18.23.22.52.11.8-1.34,3.1-3.49,4.78-6.64,5.28-.28.04-.54-.06-.73-.28-.18-.21-.23-.49-.14-.76Zm.64,7.75c3.21.27,5.7-1.59,7.12-4.47.12-.25.12-.52-.03-.76-.14-.24-.38-.38-.65-.38-3.3-.07-5.47,1.45-7.06,4.45-.13.24-.13.51,0,.75.13.24.35.38.62.41h0Zm-2.61-26.77c2.79-.87,4.48-4.72,4.3-7.77-.02-.3-.18-.54-.46-.66-.27-.13-.56-.1-.8.08-2.5,1.9-4.02,4.3-4.07,7.59,0,.26.11.48.32.64.2.15.46.21.7.12Zm-1.68,12.81c-.74-3.07-2.95-5.36-5.95-6.44-.3-.1-.6-.03-.82.18-.22.22-.29.52-.2.82,1.02,3.04,3.3,6.19,6.14,6.41.26.02.49-.07.66-.27.16-.2.23-.44.16-.7Zm-1.94-6.29c-2.86-.6-4.9-4.29-5.01-7.34-.02-.29.14-.56.39-.7.26-.16.56-.15.81,0,2.67,1.66,4.4,3.91,4.76,7.19.02.26-.06.49-.26.67-.19.17-.43.24-.69.18Zm-.07-7.27c-2.64-1.27-3.75-5.33-3.12-8.32.06-.29.26-.51.55-.59.29-.09.58,0,.79.2,2.19,2.24,3.35,4.85,2.91,8.1-.03.26-.17.47-.41.59-.23.12-.48.13-.71.02Zm5.2,34.89c3.2.41,5.76-1.34,7.32-4.16.13-.25.13-.52,0-.76-.14-.24-.37-.39-.64-.41-3.28-.21-5.52,1.21-7.24,4.14-.14.24-.16.5-.03.75.12.25.33.4.61.44h0Zm-14.47,10.33c-.48-.92-.79-1.99-.94-3.13-.03-.28.07-.53.28-.71.22-.17.48-.22.75-.14.41.14.8.3,1.16.47-.43,1.19-.85,2.36-1.25,3.51Zm4.32,3.43c-1.54-.39-2.75-1.22-3.62-2.34.47-1.35.94-2.71,1.45-4.09,1.79,1.19,2.76,3.03,3.15,5.55.04.27-.05.52-.25.7-.2.19-.46.25-.73.18Zm-8.71,10.54c-1.4-1.32-2.15-3.25-2.27-5.41-.01-.27.1-.52.33-.68.22-.16.49-.2.75-.1,1.03.42,1.88.95,2.55,1.6-.47,1.53-.92,3.05-1.36,4.58Zm2.54,1.49c-.62-.2-1.18-.47-1.68-.8.42-1.46.84-2.91,1.29-4.37.82,1.16,1.27,2.6,1.42,4.35.02.27-.08.52-.29.69-.21.17-.48.21-.74.13Zm6.04-35.99c-.52-.6-.97-1.29-1.34-2.05-.12-.25-.11-.52.03-.75.15-.24.39-.38.66-.39.39,0,.76,0,1.12.05-.12,1.03-.28,2.07-.48,3.13Zm1.97,1.63c-.39-.21-.76-.48-1.11-.77l.07-.3c.24-1.19.42-2.37.55-3.53.31.07.61.16.9.28-.05,1.23-.15,2.48-.32,3.73-.03.19-.05.39-.08.59Zm3.82.79c-1.03.09-1.98-.04-2.86-.35.05-.3.09-.61.13-.9.15-1.14.25-2.26.3-3.37,1.23.74,2.22,1.91,3.05,3.47.12.25.12.51,0,.75-.13.24-.36.39-.63.4Z"/>
      <path class="cls-1" d="m92.39,140.16c-5.65,3.11-11.45,5.99-17.4,8.5-12.44,5.25-20.05,6.55-20.56,5.78,2.41,5.97,24.34-2.75,44.32-14.56-2,.07-4.07.16-5.85.25-.15,0-.3.02-.45.02h-.07Zm45.62-87.32c5.78,23.34-.67,49.64-16.55,67.55l-.7.81v3.36c18.13-18.53,24.23-47.23,18.15-72.08-.24-.7-1.13-.4-.91.37Z"/>
      <path class="cls-1" d="m14.22,83.41c4.56,3.02,9.43,1.46,12.9-2.48-4.97-2.59-8.89-1.55-12.9,2.48"/>
      <path class="cls-1" d="m14.18,58.3c4.27.86,6.78-2.36,7.82-6.41-4.03.07-6.34,2.38-7.82,6.41"/>
      <path class="cls-1" d="m27.7,120.26c.15-.11.29-.21.45-.33-.51-.39-1.01-.73-1.5-1.02.35.46.7.91,1.06,1.35m-12.55-.11c5.02,2.72,6.98,3.9,11.92.54-.67-.83-1.33-1.69-1.96-2.56-3.29-1.39-6.42-.74-9.96,2.02Zm15.38,3.39c.16-.31.31-.64.47-.97-.57-.2-1.14-.32-1.68-.38.4.46.8.91,1.21,1.35Zm-10.44,6.04s4.14.24,6.64-1.42c1.71-1.14,2.62-2.37,3.43-3.9-.64-.69-1.27-1.39-1.88-2.1-3.75.16-6.54,3.5-8.19,7.42Zm13.58-10.92c1.38-3.12,1.26-6.23.02-9.37,0,3.01-.02,6.12-.02,9.37Zm-2.01-9.89c-1.62,2.94-2.48,7.42-.97,10.3.32.37.64.74.96,1.1,0-3.6.02-7.43.02-11.41Z"/>
      <path class="cls-1" d="m10.29,80.06c.96-5.3-2.31-9.76-6.89-11.83-.28,5.86,1.94,9.55,6.89,11.83"/>
      <path class="cls-1" d="m34.51,117.75c-.95,1.96-1.22,4.05-.19,5.81l.19-.11v-5.7Z"/>
      <path class="cls-1" d="m30.87,94.5c-4.21.19-11.16,4.25-10.26,9.12,5.48-.83,8.61-4.13,10.26-9.12"/>
      <path class="cls-1" d="m13.76,80.73c2.14-.82,3.76-2.28,4.76-4.12,1.01-1.87,1.39-4.13,1.01-6.5-2.23,1.37-3.77,2.58-4.7,4.15-.94,1.57-1.27,3.55-1.07,6.48"/>
      <path class="cls-1" d="m11.27,104.06c2.04-.52,4.1-.43,5.62.7l.03.18c-1.12.09-2.07.11-2.98-.02-.88-.12-1.73-.38-2.68-.86m-7.17,4.56c1.24-1.68,3.63-3.39,6.17-4.26l.2.12c1.22.68,2.27,1.02,3.38,1.18.95.13,1.92.11,3.05.03-.07.08-.16.16-.23.23-1.15.05-2.19.81-2.57,1.93-2.99,1.68-6.35,1.79-10,.79Z"/>
      <path class="cls-1" d="m7.15,98.97c.08.21.15.43.22.68.34,1.14.8,2.7,3.45,4.17,1.14.64,2.11.96,3.12,1.1.91.13,1.86.11,2.99.02-.37-2.02-1.49-3.43-3-4.36-1.87-1.15-4.35-1.6-6.77-1.6"/>
      <polygon class="cls-1" points="74.17 57.63 76.17 52.15 78.22 57.62 84.05 57.84 79.48 61.47 81.08 67.08 76.22 63.86 71.36 67.12 72.93 61.49 68.34 57.89 74.17 57.63"/>
      <path class="cls-1" d="m59.12,24.19c-1.42.38-2.82.83-4.21,1.31-.62-5.02.1-8.84,2.01-9.35,1.91-.52,4.49,2.43,6.51,7.06-1.45.28-2.9.6-4.32.98m17.06-2.26c-1.48,0-2.95.06-4.41.17.9-5.86,2.6-8.45,4.46-8.44,1.73,0,3.52,2.56,4.38,8.44-1.47-.11-2.95-.17-4.43-.17Zm-33.75,1.73c1.51.84,3.28,2.5,5,4.71-1.97.93-3.46,1.77-5.31,2.91l1,2.05c.13.28.35.46.64.54.29.08.57.03.83-.13,15.53-10.15,47.85-10.32,63.1.02.25.16.52.21.79.15.29-.06.51-.23.66-.48l1.24-2.15c-.65-.4-.81-.5-1.48-.88-1.29-.73-2.6-1.4-3.94-2.03,1.92-2.45,4.04-4.57,5.72-5.2,1.45-.65,2.62.43,2.91,1.8.09.06.19.11.28.17l3.34-5.65c.15-.24.39-.36.67-.34l2.15.19c.27.03.52-.09.66-.32l2.03-3.16.12-.18.59-.91c.21-.34.12-.78-.21-.99l-1.6-1.02c-.33-.21-.77-.12-.98.21l-1.15,1.79c-.21.33-.65.43-.98.21l-2.78-1.78c-.33-.21-.43-.66-.21-.99l1.15-1.79c.21-.33.12-.77-.21-.98l-1.6-1.03c-.33-.21-.77-.12-.98.22l-.59.92-.11.16-2.03,3.16c-.16.23-.16.5-.02.74l1.04,1.82c.15.27.12.59-.07.82-1.71,2-3.35,3.96-5,6l-5.33-2.64-.34-7.03c-.02-.38.25-.7.62-.75l2.53-.29c.29-.03.52-.23.6-.52.46-1.6.91-3.21,1.36-4.81.11-.39-.12-.78-.49-.88l-1.9-.54c-.38-.11-.77.12-.88.5l-.58,2.05c-.11.38-.51.6-.88.49l-1.39-.39c-.38-.11-.6-.51-.49-.88l.57-2.05c.11-.38-.12-.77-.49-.88l-1.9-.54c-.38-.11-.78.12-.88.49l-.58,2.04c-.11.38-.5.6-.88.49l-1.39-.39c-.39-.11-.61-.5-.5-.88l.58-2.05c.11-.38-.12-.77-.49-.88l-1.9-.54c-.38-.11-.78.12-.88.49-.45,1.61-.91,3.22-1.36,4.82-.08.29.02.57.25.75l2.07,1.64c.26.2.34.56.2.86l-2.84,6.11-6.83-.97-1.73-6.88c-.09-.35.09-.7.42-.84l2.4-.99c.27-.12.44-.37.44-.66V.71c0-.39-.33-.71-.72-.71h-1.97c-.39,0-.71.32-.71.71v2.13c0,.39-.32.71-.71.71h-1.46c-.39,0-.71-.32-.71-.71V.71c0-.39-.32-.71-.71-.71h-1.97c-.39,0-.71.32-.71.71v2.13c0,.39-.32.71-.71.71h-1.46c-.39,0-.71-.32-.71-.71V.71c0-.39-.32-.71-.71-.71h-1.97c-.39,0-.71.32-.71.71v5c0,.3.16.55.43.66l2.4.99c.33.14.51.48.43.83l-1.67,6.88-6.84.95-2.88-6.08c-.15-.3-.06-.66.2-.86l2.07-1.64c.24-.18.33-.47.25-.75-.45-1.6-.9-3.21-1.36-4.82-.11-.38-.5-.6-.88-.49l-1.91.54c-.38.11-.6.5-.49.88l.58,2.05c.11.38-.12.77-.49.88l-1.4.4c-.38.1-.77-.12-.88-.5l-.58-2.04c-.11-.38-.51-.6-.88-.49l-1.9.54c-.38.11-.6.5-.49.88l.57,2.05c.11.38-.11.78-.49.88l-1.39.39c-.38.11-.78-.12-.88-.49l-.57-2.05c-.11-.38-.51-.61-.88-.5l-1.9.54c-.39.1-.6.5-.49.88.45,1.61.9,3.22,1.36,4.82.08.29.31.48.61.52l2.52.29c.37.05.64.37.62.75l-.34,6.95-5.52,2.81-.88-1.05-.54-.68-3.42-4.36c-.18-.24-.2-.54-.06-.79l1.05-1.85c.14-.24.13-.51-.02-.74-.92-1.41-1.82-2.83-2.73-4.25-.21-.34-.65-.43-.99-.22l-1.6,1.03c-.33.21-.43.65-.21.98l1.15,1.79c.21.34.12.78-.22.99l-2.78,1.78c-.33.21-.77.12-.98-.21l-1.15-1.79c-.21-.33-.66-.43-.98-.21l-1.6,1.02c-.33.21-.43.65-.21.99.91,1.41,1.82,2.83,2.73,4.25.15.23.39.34.66.32l2.12-.19c.29-.02.56.12.7.38l2.32,4.36.66,1.25c.09-.06.19-.12.28-.17.17-.81.52-1.41,1.06-1.72,1.02-.56,2.01-.02,2.94.4Zm55.04,1.86c-1.38-.48-2.78-.92-4.21-1.32-1.43-.39-2.9-.71-4.35-.99,1.1-2.51,2.35-4.52,3.58-5.75,3.64-3.67,5.03.66,5.15,3.97.07,1.22.02,2.6-.16,4.09Z"/>
      <path class="cls-1" d="m103.6,34.29c.42.19.61.69.43,1.1-.2.43-.69.61-1.11.43-17.81-7.92-35.63-7.99-53.44,0-.43.19-.92,0-1.1-.43-.2-.42,0-.92.42-1.1,18.27-8.19,36.54-8.13,54.82,0"/>
      <path class="cls-1" d="m76.11,113.91c2.16,0,3.9,1.75,3.9,3.9s-1.74,3.9-3.9,3.9-3.89-1.75-3.89-3.9,1.74-3.9,3.89-3.9m6.4,2.76l-1.56-.39c-.09-.27-.2-.54-.34-.79l.8-1.33c.1-.16.07-.35-.06-.48l-1.11-1.11c-.12-.12-.32-.15-.48-.06l-1.33.8c-.26-.13-.52-.25-.8-.33l-.37-1.57c-.05-.17-.21-.29-.39-.29h-1.57c-.18,0-.34.12-.38.29l-.38,1.57c-.27.08-.54.2-.79.33l-1.33-.8c-.16-.09-.36-.07-.48.06l-1.11,1.11c-.12.13-.15.32-.06.48l.8,1.33c-.13.25-.25.52-.33.79l-1.51.39c-.17.04-.3.2-.3.38v1.57c0,.18.13.34.3.38l1.51.39c.08.28.2.54.33.8l-.8,1.33c-.09.16-.07.35.06.47l1.11,1.12c.12.12.32.15.48.05l1.33-.8c.25.14.52.25.79.34l.38,1.51c.05.17.2.29.38.29h1.57c.18,0,.33-.12.39-.29l.37-1.51c.28-.09.54-.2.8-.34l1.33.8c.16.1.35.07.48-.05l1.11-1.12c.13-.12.16-.32.06-.47l-.8-1.33c.14-.26.25-.52.34-.8l1.56-.39c.17-.04.3-.19.3-.38v-1.57c0-.18-.13-.33-.3-.38Z"/>
      <path class="cls-1" d="m73.82,115.58l.06-.07c.15-.14.39-.14.53,0l1.44,1.45c.15.14.39.14.53,0l1.41-1.41c.15-.15.38-.15.52,0l.06.06c.15.15.15.39,0,.53l-1.41,1.41c-.15.15-.15.39,0,.52l1.44,1.45c.15.15.15.39,0,.52l-.06.07c-.15.15-.38.15-.53,0l-1.44-1.45c-.15-.14-.39-.14-.53,0l-1.41,1.42c-.15.14-.39.14-.53,0l-.06-.06c-.15-.15-.15-.39,0-.53l1.41-1.41c.15-.14.15-.38,0-.52l-1.44-1.45c-.15-.14-.15-.38,0-.52"/>
      <path class="cls-1" d="m104.4,111.09s.74,1.01.29,2.11c-.46.79-1.28,1.41-1.28,1.41l-3.28,2.59.15.27,5.42-4.1s.19.39.13.91c.02.22-.12.53-.28.78-.12.2-.48.57-.59.65-.14.1-.32.21-.57.35-1.09.64-3.85,2.14-3.79,2.13l-.02.3,5.51-2.73s0,1.28-.88,1.89c-.31.22-.75.39-1.07.51-.22.07-3.49,1.19-3.49,1.19l-.02.21,4.93-1.37s-.28,1.21-1.32,1.51c-.88.25-3.73.67-3.73.67l-.1.24,3.86-.34s-.19.52-1.06.9c-.86.37-1.99.26-1.99.26l-1.98-.2s-.02-.21.03-.48c.06-.43.04-1.06-.42-1.36-.75-.5-.76-.18-1.18-.77-.25-.46-.15-.79-.15-.79l6.88-6.75Z"/>
      <path class="cls-1" d="m91.67,118.38c.55-2.82,5.25-3.99,7.49-2.86l-2.07,1.87s-.5.39-.09,1.25c.35.75.71.88,1.13,1.01.42.12.49.45.41,1.33-.02.49-.02.74-.03.74,1.15.33,2.65.6,3.8.4.53-.09,1.05-.25,1.49-.42-.42,2.11-.64,2.93-2.23,2.82-1.18-.29-2.71-.76-3.69-1.15-.95-.38-.93-.41-1.03-1.27-.17-1.34-.9-3.85-2.74-3.36-2.31.4-2.86,1.53-2.44-.37"/>
      <path class="cls-1" d="m60.71,115.66c0,.28.14.43.43.43h-15.99c.28,0,.43-.15.43-.43s-.14-.43-.43-.43h15.99c-.29,0-.43.15-.43.43"/>
      <path class="cls-1" d="m46,114.86h14.27c.22,0,.42.09.57.24.15.15.24.34.24.57s-.09.43-.24.56c-.15.15-.34.24-.57.24h-14.27c-.22,0-.42-.09-.57-.24-.15-.14-.24-.34-.24-.56s.09-.42.24-.57c.15-.15.34-.24.57-.24m14.27.74h-14.27s-.03,0-.04.02c-.02,0-.02.03-.02.04s0,.03.02.04c.02.02.02.02.04.02h14.27s.03,0,.04-.02c.02,0,.02-.02.02-.04s0-.03-.02-.04c-.02,0-.03-.02-.04-.02Z"/>
      <path class="cls-1" d="m49.1,117.77s-3.13.63-3.13,2.04,3.54,4.19,4.19,4.36c-.79-2.21-1.35-3.61-1.06-6.41"/>
      <path class="cls-1" d="m45.6,119.81c0-1.73,3.41-2.41,3.42-2.41.04,0,.07,0,.12,0,.21.03.35.2.33.41-.26,2.58.22,3.94.93,5.94l.11.3c.03.06.03.15.02.23-.06.2-.26.31-.46.26-.43-.12-1.96-1.22-3.08-2.39-.77-.8-1.38-1.66-1.38-2.33m3.09-1.56c-.81.22-2.34.75-2.34,1.56,0,.46.51,1.15,1.16,1.82.64.66,1.39,1.3,1.96,1.71-.57-1.63-.94-2.96-.79-5.1Z"/>
      <path class="cls-1" d="m49.29,118.47c.21.21.44.38.66.52.26.16.52.28.7.34.2.06.3.25.26.44-.17.65-.28,1.34-.34,2.07-.07.74-.08,1.52-.04,2.32l-.74.03c-.03-.84-.02-1.65.04-2.41.06-.65.15-1.28.29-1.87-.17-.08-.36-.17-.55-.3-.27-.16-.55-.37-.8-.63l.52-.52Z"/>
      <path class="cls-1" d="m48.79,115.37s-.3,1.39-.06,2.31l-.72.19c-.29-1.09.05-2.62.05-2.62l.73.13Z"/>
      <path class="cls-1" d="m48.54,115.12c1.29-1.32,2.58-2,3.96-2.31,1.36-.3,2.78-.24,4.33-.06l-.08.74c-1.49-.17-2.83-.25-4.08.04-1.24.27-2.42.9-3.6,2.1l-.52-.52Z"/>
      <path class="cls-1" d="m56.93,114.93v-3.6h5.52c.3,0,.55.25.55.55v.07c0,.3-.24.55-.55.55h-4.23v2.51h-1.27l-.02-.08Z"/>
      <path class="cls-1" d="m57.12,111.51v3.31h.93v-2.51h4.41c.1,0,.19-.04.25-.11.07-.07.11-.15.11-.25v-.07c0-.1-.04-.19-.11-.25-.06-.06-.15-.12-.25-.12h-5.34Zm-.37,3.42v-3.79h5.7c.2,0,.39.08.52.22.13.13.21.31.21.52v.07c0,.2-.08.39-.21.52-.13.14-.32.22-.52.22h-4.04v2.5h-1.6c-.02-.06-.06-.2-.06-.26Z"/>
      <path class="cls-1" d="m53.38,117.77s-3.13.63-3.13,2.04,3.54,4.19,4.18,4.36c-.79-2.21-1.35-3.61-1.06-6.41"/>
      <path class="cls-1" d="m49.88,119.81c0-1.73,3.41-2.41,3.43-2.41.03,0,.07,0,.11,0,.21.03.35.2.34.41-.27,2.58.22,3.94.92,5.94l.11.3c.03.06.03.15.02.23-.06.2-.25.31-.45.26-.43-.12-1.97-1.22-3.09-2.39-.77-.8-1.37-1.66-1.37-2.33h0Zm3.09-1.56c-.81.22-2.34.75-2.34,1.56,0,.46.51,1.15,1.16,1.82.64.66,1.39,1.3,1.96,1.71-.56-1.63-.93-2.96-.79-5.1Z"/>
      <path class="cls-1" d="m53.57,118.47c.21.21.44.38.66.52.27.16.52.28.7.34.2.06.31.25.26.44-.17.65-.29,1.34-.34,2.07-.06.74-.08,1.52-.05,2.32l-.74.03c-.03-.84-.02-1.65.04-2.41.06-.66.15-1.28.29-1.87-.17-.08-.36-.17-.55-.3-.27-.16-.55-.37-.79-.63l.51-.52Z"/>
      <path class="cls-1" d="m53.07,115.37s-.3,1.39-.06,2.31l-.72.19c-.29-1.09.05-2.62.05-2.62l.73.13Z"/>
      <path class="cls-1" d="m57.66,117.77s-3.13.63-3.13,2.04,3.54,4.19,4.18,4.36c-.79-2.21-1.34-3.61-1.06-6.41"/>
      <path class="cls-1" d="m54.17,119.81c0-1.73,3.41-2.41,3.42-2.41.03,0,.07,0,.12,0,.2.03.35.2.33.41-.27,2.58.22,3.94.93,5.94l.1.3c.03.06.04.15.02.23-.05.2-.25.31-.45.26-.43-.12-1.97-1.22-3.09-2.39-.77-.8-1.37-1.66-1.37-2.33m3.09-1.56c-.81.22-2.35.75-2.35,1.56,0,.46.51,1.15,1.16,1.82.64.66,1.4,1.3,1.96,1.71-.57-1.63-.93-2.96-.78-5.1Z"/>
      <path class="cls-1" d="m57.86,118.47c.21.21.43.38.66.52.26.16.51.28.7.34.19.06.3.25.25.44-.17.65-.28,1.34-.34,2.07-.06.74-.07,1.52-.05,2.32l-.74.03c-.03-.84-.01-1.65.05-2.41.06-.66.15-1.28.28-1.87-.17-.08-.36-.17-.55-.3-.27-.16-.55-.37-.79-.63l.52-.52Z"/>
      <path class="cls-1" d="m57.35,115.37s-.3,1.39-.06,2.31l-.71.19c-.3-1.09.04-2.62.04-2.62l.73.13Z"/>
      <path class="cls-1" d="m71.75,86.75c-2.74.34-6.24.87-9,1.48-7.89,1.73-18.25,3.21-26.32-.8v-3.76c7.57,4.49,17.81,3.05,25.59,1.33,3.16-.7,7.04-1.31,10.24-1.64.07.43.08.92.02,1.51h0c-.09.79-.3,1.34-.53,1.87"/>
      <path class="cls-1" d="m116.04,87.27c-9.26,4.79-20.37,2.86-28.74.98-2.38-.54-4.76-1.07-7.1-1.42-.07-.14-.15-.27-.23-.4l-.06-.11c-.18-.3-.37-.61-.51-.94-.17-.43-.25-.85-.24-1.27,0-.25.04-.5.11-.75,2.93.35,5.83,1.01,8.75,1.67,8.22,1.85,19.22,3.74,28.01-1.56v3.8Z"/>
      <path class="cls-1" d="m79.15,92.47c-.21,4.03-2.95,8.41-2.95,8.41,0,0-3.38-5.29-3.4-9.05-.02-3.76,1.25-3.99,1.57-6.81.32-2.82-.79-4.52-1.4-5.02-.61-.5-5.18.62-5.52-2.58-.34-3.2,2.19-3.87,3.4-3.88.64,0,.92.06,1.18.21.16.09.46.34.41.75-.03.33-.25.52-.57.53-.38,0-.8,0-1.22.05-.72.1-1.52.43-1.66,1.4-.27,1.82,1.66,1.93,2.98,1.37,1.24-.52,1.57-1.46,2.47-2.06.49-.32,1.08-.52,1.71-.52,1.71,0,3.09,1.39,3.09,3.1s-1.11,2.06-1.69,3.36c-.64,1.42-.73,3.04-.1,4.55.78,1.88,1.88,2.15,1.68,6.19"/>
      <path class="cls-1" d="m11.12,93.26c1.32-.04,2.42.99,2.46,2.32.07,2.13-2.47,3.28-4.03,1.82-1.55-1.46-.57-4.07,1.56-4.13"/>
      <path class="cls-1" d="m9.73,87.48c1.32-.04,2.42,1,2.46,2.31.07,2.14-2.47,3.28-4.03,1.82-1.55-1.46-.57-4.07,1.56-4.14"/>
      <path class="cls-1" d="m5.66,91.64c1.32-.04,2.42,1,2.46,2.32.07,2.13-2.47,3.27-4.03,1.82-1.55-1.46-.57-4.07,1.56-4.14"/>
      <path class="cls-1" d="m24.92,103.37c1.33-.04,2.43,1,2.47,2.32.07,2.14-2.48,3.28-4.03,1.82-1.55-1.46-.56-4.07,1.56-4.14"/>
      <path class="cls-1" d="m18.98,111.75c1.33-.04,2.43,1,2.47,2.32.06,2.13-2.48,3.28-4.03,1.82-1.55-1.46-.56-4.07,1.56-4.13"/>
      <path class="cls-1" d="m13.16,110.77c1.32-.05,2.42.99,2.46,2.31.07,2.13-2.47,3.27-4.03,1.82-1.55-1.46-.57-4.07,1.56-4.13"/>
      <path class="cls-1" d="m7.99,64.55c1.32-.04,2.42,1,2.46,2.32.06,2.13-2.47,3.27-4.03,1.82-1.55-1.46-.57-4.07,1.56-4.14"/>
      <path class="cls-1" d="m11.15,59.97c-4.07-1.55-4.46-5.61-3.18-9.6,3.37,2.22,4.09,5.41,3.18,9.6"/>
      <path class="cls-1" d="m15.73,60.52c1.32.12,2.29,1.28,2.18,2.6-.2,2.13-2.86,2.96-4.22,1.33-1.37-1.64-.07-4.11,2.05-3.92"/>
      <path class="cls-1" d="m7.69,59.42c1.28.34,2.04,1.64,1.7,2.92-.55,2.06-3.31,2.44-4.38.6-1.07-1.84.62-4.06,2.68-3.52"/>
      <path class="cls-1" d="m13.81,54.05c-2.85-3.29-1.29-7.06,1.72-9.96,1.92,3.53,1.06,6.68-1.72,9.96"/>
      <path class="cls-1" d="m118.74,111.35c-.71,2.44-1.28,4.82-1.68,7.13v6.73l1.68-.46v-13.4Zm2.03,7.77c2.91-10.64,5.71-20.41,10.38-32.17v-.02c1.35-3.15,2.17-6.45,2.6-9.69.45-3.46.47-7.63.03-11.1-.21-1.79-.49-1.82-.34,0,.11,3.31-.08,6.9-.83,10.62-.75,3.75-2.04,7.64-4.12,11.56-3.04,5.72-5.7,11.42-7.73,16.92v13.87h0Z"/>
      <path class="cls-1" d="m131.53,119.36c-3.51,3-7.06,5.45-10.78,7.79-.05,1.01-.22,1.99-.5,2.94,8.76-6.49,18.71-15.11,25.09-25.41.04-.07.02-.16-.04-.2-.06-.05-.15-.03-.21.03-3.87,5.02-9.78,11.63-13.55,14.86"/>
      <path class="cls-1" d="m115.59,42.51h5.52c1.12,0,2.03.91,2.03,2.03v.14c0,.77-.39,1.43-1.07,1.79-2.04,1.1-2.32,5.49-2.32,9.88v70.09c0,3.33-1.37,6.37-3.56,8.56-2.19,2.2-5.22,3.57-8.55,3.57h0c-.69.02-9.62.3-15.11.58-2.95.14-6.04.61-8.7,1.7-2.52,1.03-4.68,2.64-5.98,5.12-.69,1.29-2.58,1.32-3.27,0-1.28-2.43-3.35-4.01-5.74-5.03-2.53-1.07-5.44-1.53-8.23-1.7-5.34-.31-14.45-.63-15.74-.67h-.09c-3.33,0-6.36-1.37-8.55-3.57-2.2-2.2-3.56-5.23-3.56-8.56,0-23.4.11-46.8.11-70.19,0-4.4-.34-8.7-2.42-9.77-.7-.36-1.1-1.03-1.1-1.81v-.12c0-1.12.91-2.04,2.03-2.04h84.32Zm1.89,3.7H34.99c1.22,2.61,1.49,6.29,1.49,10.03,0,23.39-.11,46.79-.11,70.19,0,2.32.95,4.43,2.47,5.96,1.52,1.52,3.62,2.46,5.93,2.46.07,0,.15,0,.21.02,1.29.04,10.65.37,15.82.67,3.14.19,6.47.73,9.46,1.99,2.27.97,4.32,2.33,5.94,4.27,1.67-1.99,3.82-3.4,6.21-4.38,3.12-1.28,6.61-1.82,9.93-1.97,5.61-.29,15.22-.59,15.24-.59h.05c2.31,0,4.41-.95,5.93-2.47,1.52-1.53,2.47-3.63,2.47-5.96V56.35c0-3.74.23-7.49,1.44-10.14Z"/>
      <path class="cls-1" d="m122.95,115.07c.1.47.17.96.22,1.48.02.27-.08.52-.3.69-.17.14-.38.19-.58.16l.65-2.33Z"/>
    </g>
  </g>
</svg>